<?xml version="1.0" encoding="utf-8"?>
<!-- Generator: Adobe Illustrator 17.0.0, SVG Export Plug-In . SVG Version: 6.00 Build 0)  -->
<!DOCTYPE svg PUBLIC "-//W3C//DTD SVG 1.0//EN" "http://www.w3.org/TR/2001/REC-SVG-20010904/DTD/svg10.dtd">
<svg version="1.0" id="Layer_1" xmlns="http://www.w3.org/2000/svg" xmlns:xlink="http://www.w3.org/1999/xlink" x="0px" y="0px"
	 width="64px" height="64px" viewBox="0 0 64 64" enable-background="new 0 0 64 64" xml:space="preserve">
<g>
	<rect x="-172.778" y="-101.5" fill="#FFFFFF" stroke="#FFFFFF" stroke-miterlimit="10" width="459" height="239"/>
</g>
<g>
	<circle fill="#67308C" cx="32" cy="32" r="32"/>
	<g>
		<path fill="#FFFFFF" d="M43.573,42.835c1.218-0.44,2.401-0.867,3.623-1.308c0.331,0.815,0.653,1.606,0.991,2.437
			c-0.12,0.059-0.225,0.119-0.337,0.164c-1.931,0.78-3.865,1.552-5.79,2.345c-0.323,0.133-0.431,0.035-0.549-0.251
			c-1.534-3.709-3.083-7.411-4.614-11.121c-0.127-0.308-0.28-0.403-0.609-0.402c-3.705,0.01-7.41,0.003-11.114,0
			c-0.163,0-0.325,0-0.529,0c-0.043-0.524-0.089-1.012-0.122-1.5c-0.137-1.979-0.268-3.959-0.406-5.938
			c-0.165-2.357-0.335-4.714-0.502-7.071c-0.023-0.328-0.064-0.656-0.058-0.984c0.017-0.909-0.286-1.758-0.452-2.633
			c-0.326-1.724,1.006-3.568,2.69-3.801c1.93-0.267,3.637,1.073,3.833,2.956c0.162,1.566-0.77,3.369-2.938,3.777
			c0.119,2.231,0.239,4.472,0.362,6.769c1.412,0,2.809,0,4.207,0c1.4,0,2.8,0,4.251,0c0,0.596,0,1.149,0,1.702
			c0,0.367-0.018,0.735,0.005,1.1c0.021,0.319-0.098,0.407-0.41,0.406c-2.39-0.011-4.78-0.006-7.169-0.006c-0.162,0-0.324,0-0.553,0
			c0.047,0.722,0.091,1.405,0.135,2.087c1.272,0,2.497,0.005,3.722-0.001c2.377-0.012,4.754-0.022,7.131-0.054
			c0.314-0.004,0.439,0.115,0.55,0.378c1.468,3.477,2.945,6.95,4.42,10.423C43.41,42.47,43.482,42.63,43.573,42.835z"/>
		<path fill="#FFFFFF" d="M22.925,26.894c0.084,1.182,0.174,2.302,0.23,3.424c0.007,0.148-0.125,0.353-0.254,0.45
			c-1.041,0.79-1.9,1.731-2.559,2.864c-2.737,4.708-0.649,10.895,4.381,12.958c3.645,1.495,8.022,0.174,10.299-3.091
			c0.771-1.106,1.286-2.311,1.542-3.631c0.03-0.155,0.071-0.308,0.123-0.535c0.092,0.158,0.154,0.248,0.201,0.346
			c0.612,1.275,1.229,2.547,1.824,3.83c0.066,0.142,0.062,0.379-0.013,0.515c-1.909,3.447-4.759,5.683-8.652,6.397
			c-3.895,0.714-7.339-0.374-10.247-3.048c-2.307-2.122-3.626-4.794-3.925-7.901c-0.514-5.335,2.249-10.131,6.751-12.452
			C22.701,26.981,22.783,26.953,22.925,26.894z"/>
	</g>
</g>
</svg>
