<?xml version="1.0" encoding="utf-8"?>
<!-- Generator: Adobe Illustrator 17.0.0, SVG Export Plug-In . SVG Version: 6.00 Build 0)  -->
<!DOCTYPE svg PUBLIC "-//W3C//DTD SVG 1.0//EN" "http://www.w3.org/TR/2001/REC-SVG-20010904/DTD/svg10.dtd">
<svg version="1.0" id="Layer_1" xmlns="http://www.w3.org/2000/svg" xmlns:xlink="http://www.w3.org/1999/xlink" x="0px" y="0px"
	 width="64px" height="64px" viewBox="0 0 64 64" enable-background="new 0 0 64 64" xml:space="preserve">
<g>
	<rect x="-250.248" y="-101.5" fill="#FFFFFF" stroke="#FFFFFF" stroke-miterlimit="10" width="459" height="239"/>
</g>
<g>
	<circle fill="#B7975E" cx="32" cy="32" r="32"/>
	<g>
		<path fill="#FFFFFF" d="M16.504,22.343c1.27,0.013,2.541,0.058,3.81,0.023c0.552-0.015,0.719,0.195,0.812,0.695
			c1.594,8.574,3.213,17.144,4.792,25.72c0.142,0.772,0.38,1.055,1.221,1.04c3.29-0.059,6.581-0.039,9.872-0.01
			c0.595,0.005,0.808-0.183,0.917-0.762c1.638-8.667,3.299-17.33,4.958-25.993c0.041-0.215,0.112-0.424,0.189-0.713
			c1.486,0,2.953,0,4.42,0c0,0.1,0,0.2,0,0.299c-0.093,0.334-0.212,0.662-0.276,1.002c-1.202,6.371-2.401,12.743-3.593,19.116
			c-0.714,3.823-1.414,7.649-2.12,11.473c-6.388,0-12.776,0-19.164,0c-0.023-0.27-0.025-0.544-0.073-0.81
			c-1.57-8.53-3.141-17.061-4.724-25.589c-0.322-1.736-0.693-3.462-1.042-5.193C16.504,22.543,16.504,22.443,16.504,22.343z"/>
		<path fill="#FFFFFF" d="M30.128,9.766c0.744,0.789,1.475,1.592,2.238,2.363c0.365,0.369,0.79,0.679,1.131,0.967
			c-1.263,1.263-2.396,2.397-3.49,3.492c-1.069-1.068-2.191-2.188-3.354-3.35c1.076-1.123,2.201-2.298,3.326-3.472
			C30.029,9.766,30.079,9.766,30.128,9.766z"/>
		<path fill="#FFFFFF" d="M33.162,18.204c1.12,1.118,2.242,2.239,3.312,3.307c-1.096,1.104-2.226,2.242-3.316,3.341
			c-1.089-1.092-2.224-2.23-3.326-3.336C30.916,20.437,32.041,19.319,33.162,18.204z"/>
		<path fill="#FFFFFF" d="M34.053,32.786c-1.551,0-3.078,0-4.659,0c0-1.562,0-3.09,0-4.679c1.536,0,3.065,0,4.659,0
			C34.053,29.644,34.053,31.191,34.053,32.786z"/>
	</g>
</g>
</svg>
