<?xml version="1.0" encoding="utf-8"?>
<!-- Generator: Adobe Illustrator 17.0.0, SVG Export Plug-In . SVG Version: 6.00 Build 0)  -->
<!DOCTYPE svg PUBLIC "-//W3C//DTD SVG 1.1//EN" "http://www.w3.org/Graphics/SVG/1.1/DTD/svg11.dtd">
<svg version="1.1" id="Layer_1" xmlns="http://www.w3.org/2000/svg" xmlns:xlink="http://www.w3.org/1999/xlink" x="0px" y="0px"
	 width="70.766px" height="64px" viewBox="0 0 70.766 64" enable-background="new 0 0 70.766 64" xml:space="preserve">
<g>
	<rect x="-168.117" y="-6.857" fill="#FFFFFF" stroke="#FFFFFF" stroke-miterlimit="10" width="459" height="239"/>
</g>
<g id="Space">
	<circle fill="#BE1E2D" cx="35.383" cy="32" r="32"/>
	<g display="none">
		<g display="inline">
			<rect x="13.383" y="17.643" fill="#E5E5E5" width="22" height="5"/>
			<path fill="#DD8747" d="M35.383,22.643H15.258c-0.953,0-1.875-0.922-1.875-1.875v-1.725c0-0.953,0.922-1.4,1.875-1.4h20.125v-1
				H15.258c-1.588,0-2.875,0.812-2.875,2.4v1.725c0,1.588,1.287,2.875,2.875,2.875h20.125V22.643z"/>
			<polygon fill="#AAAAAA" points="35.383,17.893 13.383,20.193 13.383,17.643 35.383,17.643 			"/>
		</g>
		<g display="inline">
			<rect x="15.383" y="10.643" fill="#E0E0E0" width="19" height="4"/>
			<polygon fill="#AAAAAA" points="34.383,10.993 15.383,13.293 15.383,10.643 34.383,10.643 			"/>
			<path fill="#727272" d="M34.383,14.643h-18.55c-0.318,0-0.45,0.118-0.45-0.2v-3.45c0-0.318,0.132-0.35,0.45-0.35h18.55v-1H16.408
				c-1.27,0-2.025,0.655-2.025,1.925v2.3c0,1.27,0.755,2.775,2.025,2.775h17.975V14.643z"/>
		</g>
		<g display="inline">
			<path fill="#7EC7FC" d="M25.383,4.668V3.643h-7v3.9c0,0.953,0.522,2.1,1.475,2.1h3.45c0.953,0,1.725-0.96,1.725-1.912
				c1.27,0,2.475-0.738,2.475-1.531S26.383,4.668,25.383,4.668z M25.033,6.968V5.243c0.988,0,1.789,0.245,1.789,0.863
				S26.021,6.968,25.033,6.968z"/>
			<path fill="#6ABFEA" d="M19.858,9.643h3.45c0.953,0,1.725-1,1.725-2h-6.9C18.133,8.643,18.905,9.643,19.858,9.643z"/>
		</g>
	</g>
	<g display="none">
		<g display="inline">
			<path fill="#FFFFFF" d="M47.383,41.74c0,1.076-0.349,1.902-1.488,1.902h-7.61c-1.138,0-1.902-0.826-1.902-1.902V26.045
				c0-1.076,0.764-1.402,1.902-1.402h7.61c1.138,0,1.488,0.326,1.488,1.402V41.74z"/>
		</g>
		<g display="inline">
			<circle fill="#FFFFFF" cx="41.852" cy="41.502" r="1.088"/>
			<path fill="#E5E5E5" d="M41.852,40.789c0.394,0,0.713,0.32,0.713,0.713c0,0.394-0.32,0.713-0.713,0.713
				c-0.394,0-0.713-0.32-0.713-0.713C41.139,41.108,41.458,40.789,41.852,40.789 M41.852,40.039c-0.807,0-1.463,0.656-1.463,1.463
				c0,0.807,0.656,1.463,1.463,1.463s1.463-0.656,1.463-1.463C43.316,40.695,42.659,40.039,41.852,40.039L41.852,40.039z"/>
		</g>
		<g display="inline">
			<path fill="#B7B7B7" d="M46.383,27.643v12h-9v-12H46.383 M47.383,26.643h-1.012H37.81h-1.427v1.305v11.415v1.28h1.427h8.561
				h1.012v-1.28V27.947V26.643L47.383,26.643z"/>
		</g>
		<g display="inline">
			<rect x="40.383" y="25.643" fill="#BCBCBC" width="3" height="1"/>
		</g>
		<rect x="42.09" y="25.094" display="inline" fill="#BCBCBC" width="0.476" height="0.476"/>
	</g>
	
		<line id="line_2_" fill="none" stroke="#FFFFFF" stroke-width="2" stroke-miterlimit="10" x1="0.002" y1="33.626" x2="70.764" y2="33.768"/>
	<g>
		<path fill="#BE1E2D" stroke="#FFFFFF" stroke-miterlimit="10" d="M22.977,53.12c8.331,0,16.541,0,24.812,0
			c0-5.341,0-10.53,0-15.746c-8.297,0-16.506,0-24.812,0C22.977,42.652,22.977,47.859,22.977,53.12"/>
		<path fill="#FFFFFF" stroke="#FFFFFF" stroke-miterlimit="10" d="M37.806,53.834c-1.662,0-3.177,0-4.839,0
			c0,1.499,0,2.908,0,4.425c-0.965,0-1.783,0-2.617,0c0,0.451,0,0.781,0,1.149c3.39,0,6.706,0,10.042,0c0-0.419,0-0.778,0-1.229
			c-0.878,0-1.66,0-2.585,0C37.806,56.684,37.806,55.276,37.806,53.834z"/>
		<path fill="#BE1E2D" stroke="#FFFFFF" stroke-miterlimit="10" d="M22.977,53.12c0-5.26,0-10.468,0-15.746
			c8.305,0,16.515,0,24.812,0c0,5.216,0,10.406,0,15.746C39.518,53.12,31.308,53.12,22.977,53.12"/>
	</g>
	<g>
		<path fill="#FFFFFF" d="M24.614,21.189c-0.469,0.527-0.944,1.05-1.407,1.583c-0.657,0.757-1.192,0.464-1.777-0.129
			c-0.549-0.557-0.83-1.034-0.14-1.697c1.18-1.134,2.328-2.301,3.468-3.474c0.304-0.313,0.634-0.399,1.047-0.395
			c1.565,0.014,3.131,0.025,4.696-0.004c0.475-0.009,0.798,0.16,1.115,0.485c1.094,1.12,2.188,2.24,3.321,3.319
			c0.708,0.674,0.51,1.185-0.094,1.79c-0.605,0.606-1.137,0.825-1.781,0.085c-0.529-0.608-1.089-1.188-1.635-1.781
			c-0.085,0.046-0.17,0.092-0.255,0.138c0,1.583,0,3.166,0,4.749c0,1.743-0.023,3.487,0.009,5.23
			c0.016,0.878-0.265,1.299-1.222,1.309c-0.999,0.01-1.317-0.407-1.289-1.348c0.044-1.488,0.012-2.978,0.012-4.431
			c-0.417-0.328-0.794-0.112-1.27-0.211c0,1.595,0.006,3.08-0.002,4.564c-0.007,1.208-0.213,1.373-1.327,1.414
			c-1.066,0.039-1.217-0.551-1.21-1.421c0.024-3.195,0.009-6.391,0.009-9.586C24.793,21.314,24.704,21.252,24.614,21.189z"/>
		<path fill="#FFFFFF" d="M28.125,9.186c1.829,0.017,3.333,1.55,3.298,3.36c-0.036,1.832-1.571,3.311-3.391,3.265
			c-1.801-0.045-3.221-1.498-3.228-3.305C24.797,10.668,26.296,9.17,28.125,9.186z"/>
	</g>
	<g>
		<path fill="#FFFFFF" d="M43.119,27.457c-0.406-0.186-0.73-0.19-1.138-0.001c0,1.206-0.027,2.439,0.009,3.67
			c0.027,0.923-0.443,1.125-1.233,1.128c-0.807,0.003-1.245-0.243-1.219-1.148c0.034-1.201,0.008-2.404,0.008-3.631
			c-0.538-0.343-1.167-0.008-1.781-0.264c0.309-1.609,0.618-3.218,0.975-5.079c-1.063,0.736-1.698,1.52-2.374,2.243
			c-0.667,0.714-1.165,0.63-1.817-0.036c-0.66-0.674-0.702-1.174-0.011-1.852c1.549-1.518,3.059-3.08,4.557-4.651
			c0.441-0.463,0.894-0.765,1.542-0.652c2.71,0.474,4.92-0.399,6.676-2.547c0.263-0.322,0.638-0.545,0.932-0.844
			c1.146-1.168,1.491-0.667,2.331,0.473c0.362,0.49,0.043,0.912-0.366,1.268c-1.291,1.125-2.556,2.281-3.855,3.397
			c-0.389,0.334-0.51,0.64-0.4,1.176c0.479,2.346,0.897,4.706,1.338,7.064c-0.545,0.32-1.132-0.012-1.728,0.278
			c0,1.161-0.026,2.355,0.009,3.547c0.026,0.902-0.322,1.264-1.227,1.26c-0.88-0.004-1.275-0.298-1.238-1.235
			C43.154,29.828,43.119,28.63,43.119,27.457z"/>
		<path fill="#FFFFFF" d="M45.734,11.471c0.106,2.718-1.063,4.291-3.162,4.301c-2.137,0.01-3.291-1.573-3.166-4.391
			c-1.25,0.354-2.454,1.277-3.82,0.376c1.233-1.992,2.889-2.421,4.192-1.125c2.015-1.862,3.505-1.919,5.338-0.203
			c1.571-0.978,2.743-0.635,4.209,1.297C48.053,12.578,46.9,11.881,45.734,11.471z"/>
	</g>
</g>
</svg>
