<?xml version="1.0" encoding="utf-8"?>
<!-- Generator: Adobe Illustrator 17.0.0, SVG Export Plug-In . SVG Version: 6.00 Build 0)  -->
<!DOCTYPE svg PUBLIC "-//W3C//DTD SVG 1.1//EN" "http://www.w3.org/Graphics/SVG/1.1/DTD/svg11.dtd">
<svg version="1.1" id="Layer_1" xmlns="http://www.w3.org/2000/svg" xmlns:xlink="http://www.w3.org/1999/xlink" x="0px" y="0px"
	 width="64px" height="64px" viewBox="0 0 64 64" enable-background="new 0 0 64 64" xml:space="preserve">
<g>
	<rect x="-22.5" y="-101.5" fill="#FFFFFF" stroke="#FFFFFF" stroke-miterlimit="10" width="459" height="239"/>
</g>
<g>
	<circle fill="#2B3990" cx="106" cy="-64.286" r="32"/>
	<path fill="#FFFBE6" d="M117.29-80.127l-10.547-12.354c0,0,0,0-0.001,0l-0.741-0.87l-0.742,0.87c-0.001,0-0.001,0-0.001,0
		L94.71-80.127c-0.409,0.479-0.203,0.82,0.455,0.758l1.521-0.002l2.923,10.388h12.783l2.921-10.387l1.521,0.072
		C117.494-79.237,117.698-79.648,117.29-80.127z"/>
	
		<line id="line" fill="none" stroke="#FFFFFF" stroke-width="2" stroke-miterlimit="10" x1="70.619" y1="-64.356" x2="141.381" y2="-64.214"/>
	<g id="Head">
		<g id="Head_backl">
			<path fill="#FFFFFF" stroke="#2B3990" stroke-width="0.5" stroke-miterlimit="10" d="M116.8-47.143
				c-0.717,0.019-1.647-0.876-2.597-2.427c-0.951-1.551-1.501-3.902-1.501-3.902c-0.4-2.151,0.7-3.502,0.7-3.502
				c1.251-1.801,3.302-1.901,3.302-1.901h0.192c0,0,2.051,0.1,3.302,1.901c0,0,1.101,1.351,0.7,3.502c0,0-0.55,2.351-1.501,3.902
				C118.447-48.019,117.518-47.162,116.8-47.143z"/>
			<path fill="#FFFFFF" stroke="#2B3990" stroke-width="0.5" stroke-miterlimit="10" d="M116.8-42.34h8.822
				c0.563-0.488-1.144-2.57-1.932-3.283s-2.946-1.97-3.921-2.251c0,0-1.407,1.538-1.764,1.538s-1.205,0-1.205,0s-0.848,0-1.205,0
				s-1.764-1.538-1.764-1.538c-0.976,0.281-3.133,1.538-3.921,2.251s-2.495,2.796-1.932,3.283H116.8z"/>
		</g>
		<g id="Head_back_1_">
			<path fill="#FFFFFF" stroke="#2B3990" stroke-width="0.5" stroke-miterlimit="10" d="M95.2-47.143
				c0.717,0.019,1.647-0.876,2.597-2.427c0.951-1.551,1.501-3.902,1.501-3.902c0.4-2.151-0.7-3.502-0.7-3.502
				c-1.251-1.801-3.302-1.901-3.302-1.901h-0.192c0,0-2.051,0.1-3.302,1.901c0,0-1.101,1.351-0.7,3.502c0,0,0.55,2.351,1.501,3.902
				C93.553-48.019,94.482-47.162,95.2-47.143z"/>
			<path fill="#FFFFFF" stroke="#2B3990" stroke-width="0.5" stroke-miterlimit="10" d="M95.2-42.34h-8.822
				c-0.563-0.488,1.144-2.57,1.932-3.283c0.788-0.713,2.946-1.97,3.921-2.251c0,0,1.407,1.538,1.764,1.538s1.205,0,1.205,0
				s0.848,0,1.205,0s1.764-1.538,1.764-1.538c0.976,0.281,3.133,1.538,3.921,2.251s2.495,2.796,1.932,3.283H95.2z"/>
		</g>
		<path fill="#FFFFFF" stroke="#2B3990" stroke-miterlimit="10" d="M105.633-44.26c-0.852,0.022-1.956-1.04-3.084-2.882
			c-1.129-1.842-1.782-4.634-1.782-4.634c-0.475-2.555,0.832-4.159,0.832-4.159c1.485-2.139,3.921-2.258,3.921-2.258h0.228
			c0,0,2.436,0.119,3.921,2.258c0,0,1.307,1.604,0.832,4.159c0,0-0.654,2.792-1.782,4.634
			C107.589-45.3,106.485-44.282,105.633-44.26z"/>
		<path fill="#FFFFFF" stroke="#2B3990" stroke-miterlimit="10" d="M105.633-38.556h10.476c0.668-0.579-1.359-3.052-2.295-3.899
			c-0.936-0.847-3.498-2.339-4.656-2.674c0,0-1.671,1.827-2.094,1.827s-1.431,0-1.431,0s-1.008,0-1.431,0
			c-0.423,0-2.094-1.827-2.094-1.827c-1.159,0.334-3.721,1.827-4.656,2.674c-0.936,0.847-2.963,3.32-2.295,3.899H105.633z"/>
	</g>
</g>
<g>
	<circle fill="#FFAB03" cx="331" cy="-346" r="32"/>
	<path fill="#D8D8D8" d="M348-330.354c0,1.159-0.161,2.354-1.388,2.354h-31.557c-1.228,0-3.056-1.195-3.056-2.354v-31.803
		c0-1.159,1.828-1.843,3.056-1.843h31.557c1.227,0,1.388,0.684,1.388,1.843V-330.354z"/>
	<path fill="#EDEDED" d="M348-361c0,1.449-0.948,3-2.118,3h-31.765c-1.168,0-2.117-1.551-2.117-3l0,0c0-1.449,0.949-3,2.117-3
		h31.765C347.052-364,348-362.449,348-361L348-361z"/>
	<path fill="#E03F3F" d="M317-361.5c0,0.829-0.672,1.5-1.5,1.5l0,0c-0.828,0-1.5-0.671-1.5-1.5l0,0c0-0.829,0.672-1.5,1.5-1.5l0,0
		C316.328-363,317-362.329,317-361.5L317-361.5z"/>
	<path fill="#93B9D8" d="M321-361.5c0,0.829-0.672,1.5-1.5,1.5l0,0c-0.828,0-1.5-0.671-1.5-1.5l0,0c0-0.829,0.672-1.5,1.5-1.5l0,0
		C320.328-363,321-362.329,321-361.5L321-361.5z"/>
	<path fill="#FFC261" d="M326-361.5c0,0.829-0.672,1.5-1.5,1.5l0,0c-0.828,0-1.5-0.671-1.5-1.5l0,0c0-0.829,0.672-1.5,1.5-1.5l0,0
		C325.328-363,326-362.329,326-361.5L326-361.5z"/>
	<rect x="315" y="-350" fill="#FFFFFF" width="30" height="3"/>
	<rect x="327" y="-346" fill="#FFFFFF" width="18" height="17"/>
	<rect x="315" y="-342" fill="#FFFFFF" width="10" height="13"/>
	<path fill="#FFFFFF" d="M315-346v3h10v-3H315z M318-344h-1v-1h1V-344z M320-344h-1v-1h1V-344z M322-344h-1v-1h1V-344z M324-344h-1
		v-1h1V-344z"/>
	<g>
		<path fill="#9E9E9E" d="M316-356.352h0.56v4.134H316V-356.352z"/>
		<path fill="#9E9E9E" d="M320.304-353.65c0,1.043-0.792,1.497-1.538,1.497c-0.838,0-1.482-0.559-1.482-1.45
			c0-0.943,0.677-1.497,1.533-1.497C319.703-355.1,320.304-354.512,320.304-353.65z M317.852-353.621
			c0,0.617,0.39,1.083,0.938,1.083c0.536,0,0.939-0.46,0.939-1.095c0-0.478-0.263-1.083-0.927-1.083
			C318.139-354.715,317.852-354.156,317.852-353.621z"/>
		<path fill="#9E9E9E" d="M323.677-355.036c-0.013,0.204-0.026,0.431-0.026,0.774v1.636c0,0.647-0.141,1.043-0.44,1.287
			c-0.3,0.256-0.733,0.338-1.123,0.338c-0.371,0-0.779-0.082-1.028-0.233l0.141-0.39c0.204,0.117,0.523,0.222,0.906,0.222
			c0.574,0,0.996-0.274,0.996-0.984v-0.315h-0.013c-0.173,0.262-0.505,0.472-0.983,0.472c-0.767,0-1.315-0.594-1.315-1.374
			c0-0.955,0.684-1.497,1.391-1.497c0.537,0,0.831,0.256,0.964,0.489h0.014l0.024-0.425H323.677z M323.095-353.923
			c0-0.087-0.006-0.163-0.032-0.233c-0.102-0.297-0.376-0.542-0.784-0.542c-0.536,0-0.92,0.413-0.92,1.066
			c0,0.553,0.307,1.013,0.913,1.013c0.345,0,0.657-0.198,0.778-0.524c0.032-0.087,0.045-0.186,0.045-0.274V-353.923z"/>
		<path fill="#9E9E9E" d="M327.381-353.65c0,1.043-0.791,1.497-1.538,1.497c-0.837,0-1.482-0.559-1.482-1.45
			c0-0.943,0.677-1.497,1.531-1.497C326.78-355.1,327.381-354.512,327.381-353.65z M324.929-353.621c0,0.617,0.39,1.083,0.94,1.083
			c0.536,0,0.938-0.46,0.938-1.095c0-0.478-0.261-1.083-0.925-1.083C325.216-354.715,324.929-354.156,324.929-353.621z"/>
	</g>
</g>
<g>
	<circle fill="#B7975E" cx="259.748" cy="32" r="32"/>
	<g>
		<path fill="#FFFFFF" d="M244.252,22.343c1.27,0.013,2.541,0.058,3.81,0.023c0.552-0.015,0.719,0.195,0.812,0.695
			c1.594,8.574,3.213,17.144,4.792,25.72c0.142,0.772,0.38,1.055,1.221,1.04c3.29-0.059,6.581-0.039,9.872-0.01
			c0.595,0.005,0.808-0.183,0.917-0.762c1.638-8.667,3.299-17.33,4.958-25.993c0.041-0.215,0.112-0.424,0.189-0.713
			c1.486,0,2.953,0,4.42,0c0,0.1,0,0.2,0,0.299c-0.093,0.334-0.212,0.662-0.276,1.002c-1.202,6.371-2.401,12.743-3.593,19.116
			c-0.714,3.823-1.414,7.649-2.12,11.473c-6.388,0-12.776,0-19.164,0c-0.023-0.27-0.025-0.544-0.073-0.81
			c-1.57-8.53-3.141-17.061-4.724-25.589c-0.322-1.736-0.693-3.462-1.042-5.193C244.252,22.543,244.252,22.443,244.252,22.343z"/>
		<path fill="#FFFFFF" d="M257.877,9.766c0.744,0.789,1.475,1.592,2.238,2.363c0.365,0.369,0.79,0.679,1.131,0.967
			c-1.263,1.263-2.396,2.397-3.49,3.492c-1.069-1.068-2.191-2.188-3.354-3.35c1.076-1.123,2.201-2.298,3.326-3.472
			C257.777,9.766,257.827,9.766,257.877,9.766z"/>
		<path fill="#FFFFFF" d="M260.91,18.204c1.12,1.118,2.242,2.239,3.312,3.307c-1.096,1.104-2.225,2.242-3.316,3.341
			c-1.089-1.092-2.224-2.23-3.326-3.336C258.664,20.437,259.789,19.319,260.91,18.204z"/>
		<path fill="#FFFFFF" d="M261.802,32.786c-1.551,0-3.078,0-4.659,0c0-1.562,0-3.09,0-4.679c1.536,0,3.065,0,4.659,0
			C261.802,29.644,261.802,31.191,261.802,32.786z"/>
	</g>
</g>
<g>
	<circle fill="#6262A8" cx="506" cy="-346" r="31.992"/>
	<path fill="#FFFFFF" d="M491.707-334.529c-2.927-12.081,4.494-24.247,16.574-27.174c3.303-0.799,6.608-0.822,9.731-0.192
		c-4.739-3.556-10.972-5.045-17.18-3.542c-11.03,2.673-17.806,13.782-15.133,24.812c1.256,5.182,4.372,9.424,8.469,12.19
		C493.082-330.291,492.239-332.331,491.707-334.529z"/>
	<polygon fill="#FFFFFF" points="508,-339.238 508.656,-337.906 510.126,-337.693 509.063,-336.656 509.313,-335.193 508,-335.885 
		506.685,-335.193 506.936,-336.656 505.873,-337.693 507.343,-337.906 	"/>
	<polygon fill="#FFFFFF" points="510.999,-359.233 511.656,-357.901 513.125,-357.689 512.063,-356.652 512.313,-355.19 
		510.999,-355.879 509.685,-355.19 509.935,-356.652 508.872,-357.689 510.342,-357.901 	"/>
	<polygon fill="#FFFFFF" points="499.002,-351.235 499.659,-349.903 501.128,-349.69 500.064,-348.654 500.315,-347.191 
		499.002,-347.881 497.688,-347.191 497.938,-348.654 496.875,-349.69 498.345,-349.903 	"/>
</g>
<g>
	<circle fill="#B0C67B" cx="590" cy="-345" r="32"/>
	<g>
		<g>
			<path fill="#FFFFFF" d="M602-329c0,2.263-1.606,4-4,4h-16c-2.394,0-4-1.737-4-4v-33c0-2.263,1.606-4,4-4h16c2.394,0,4,1.737,4,4
				V-329z"/>
		</g>
		<g>
			<circle fill="#FFFFFF" cx="589.5" cy="-329.5" r="1.875"/>
			<path fill="#E5E5E5" d="M589.5-331c0.828,0,1.5,0.672,1.5,1.5s-0.672,1.5-1.5,1.5c-0.828,0-1.5-0.672-1.5-1.5
				S588.672-331,589.5-331 M589.5-331.75c-1.24,0-2.25,1.009-2.25,2.25s1.01,2.25,2.25,2.25c1.24,0,2.25-1.009,2.25-2.25
				S590.74-331.75,589.5-331.75L589.5-331.75z"/>
		</g>
		<g>
			<path fill="#B7B7B7" d="M599-358v24h-18v-24H599 M600-359h-1h-18h-1v1v24v1h1h18h1v-1v-24V-359L600-359z"/>
		</g>
		<g>
			<rect x="587" y="-362" fill="#BCBCBC" width="6" height="1"/>
		</g>
		<rect x="590" y="-364" fill="#BCBCBC" width="1" height="1"/>
	</g>
</g>
<g>
	<circle fill="#B1C920" cx="701" cy="-227" r="71"/>
	<g>
		<g>
			<path fill="#D3D3D3" d="M732.992-241.556c0-21.037-14.175-38.089-31.652-38.089c-17.477,0-31.65,17.052-31.65,38.089
				c0,4.676,0.7,10.169,1.98,15.881c-1.25,1.929-1.98,4.228-1.98,6.698c0,5.239,3.263,9.703,7.859,11.482
				c5.798,13.484,14.307,24.546,23.791,24.546c9.486,0,17.993-11.062,23.793-24.546c4.593-1.779,7.859-6.242,7.859-11.482
				c0-2.47-0.732-4.769-1.982-6.698C732.288-231.388,732.992-236.88,732.992-241.556z"/>
		</g>
		<path fill="#585E49" stroke="#6B6B6B" stroke-miterlimit="10" d="M729.684-211.408c-1.374,1.856-2.698,3.324-4.886,4.17
			c-5.798,13.48-14.028,24.543-23.516,24.543c-9.484,0-17.851-11.062-23.656-24.543c-2.186-0.846-4.948-2.314-6.322-4.17
			c-6.611,4.93-11.804,12.799-11.804,21.697v11.004c12,8.658,25.015,13.833,40.215,13.833c15.009,0,28.785-5.034,39.785-13.493
			v-11.343C739.5-198.609,736.297-206.475,729.684-211.408z"/>
		<path fill="#8E8E8E" d="M723.168-240.447c2.501,2.51,1.224,7.862-2.862,11.958c-4.084,4.095-9.421,5.382-11.924,2.87
			c-2.503-2.509-1.22-7.861,2.867-11.957C715.331-241.67,720.668-242.956,723.168-240.447z"/>
		<path fill="#212121" d="M723.168-242.672c2.501,2.51,1.224,7.862-2.862,11.958c-4.084,4.095-9.421,5.382-11.924,2.87
			c-2.503-2.509-1.22-7.861,2.867-11.957C715.331-243.895,720.668-245.181,723.168-242.672z"/>
		<path fill="#8E8E8E" d="M679.944-240.447c-2.505,2.51-1.222,7.862,2.864,11.958c4.078,4.095,9.417,5.382,11.919,2.87
			c2.5-2.509,1.22-7.861-2.862-11.957C687.785-241.67,682.446-242.956,679.944-240.447z"/>
		<path fill="#212121" d="M679.944-242.672c-2.505,2.51-1.222,7.862,2.864,11.958c4.078,4.095,9.417,5.382,11.919,2.87
			c2.5-2.509,1.22-7.861-2.862-11.957C687.785-243.895,682.446-245.181,679.944-242.672z"/>
		<path fill="#B5B5B5" d="M732.713-245.644c-0.997,0.858-0.96,1.804-1.428,2.924c-0.613,1.495-1.452,2.93-2.21,4.36
			c-1.493,2.816-3.046,5.616-4.264,8.567c-1.038,2.515-1.508,5.196-2.438,7.74c-0.628,1.719-1.055,3.508-1.623,5.248
			c-2.988,9.228-7.202,17.594-14.121,24.547c-2.245,2.26-4.84,4.163-7.941,5.033c-1.642,0.46-3.257,0.426-4.921,0.653
			c-0.745,0.103-0.795,0.693-0.292,1.249c0.633,0.704,1.948,1.006,2.832,1.265c1.257,0.367,2.57,0.543,3.874,0.588
			c0.912,0.03,1.777-0.169,2.689-0.169c1.653,0,3.116-0.028,4.708-0.452c2.418-0.646,4.39-2.675,5.95-4.522
			c0.806-0.952,1.97-1.625,2.648-2.651c0.696-1.058,1.302-2.227,1.924-3.297c0.661-1.158,1.712-1.984,2.403-3.062
			c0.563-0.882,1.131-1.829,1.547-2.803c0.217-0.51,0.49-0.989,0.717-1.436c0.464-0.921,0.945-1.808,1.497-2.675
			c0.416-0.649,0.613-1.508,0.997-2.172c0.279-0.501,0.806-0.732,1.092-1.226c0.596-1.025,2.13-1.293,3.114-2.029
			c1.612-1.204,2.509-3.279,3.137-5.13c0.364-1.082,0.479-1.949,0.323-3.057c-0.156-1.056,0.087-2.134-0.117-3.186
			c-0.097-0.547-0.23-1.036-0.331-1.595c-0.178-0.992-0.652-1.489-1.107-2.264c-0.589-1.023,0.046-2.118,0.555-2.975
			c0.414-0.697,0.394-1.906,0.394-2.764c0-0.549,0.1-1.014,0.163-1.536c0.069-0.484-0.087-0.927-0.109-1.411
			c-0.035-0.778-0.065-1.599-0.054-2.373c0.009-0.508,0.117-0.953,0.292-1.373c0.423-1,0.496-1.985,0.496-3.116
			c0-0.907,0.091-1.771,0.056-2.649C733.141-243.982,733.087-245.24,732.713-245.644"/>
		<path fill="#E8E8E8" d="M723.003-269.4c-0.934-0.561-7.943-2.499-14.238-4.081c-8.739-2.197-19.917,1.123-26.209,7.833
			c-10.975,11.706-12.78,28.7-11.694,34.336c-1.064-8.191-0.997-12.892-0.648-16.95c0.349-4.059,4.44-13.629,6.195-16.41
			c1.755-2.781,5.363-6.862,7.859-8.809c2.496-1.947,9.889-5.838,13.958-5.932c4.069-0.093,11.926,0.278,15.809,2.688
			C717.918-274.315,723.003-269.4,723.003-269.4z"/>
		<g opacity="0.7">
			<path fill="#6B6B6B" d="M701.34-182.274c-8.643,0-17.492-8.999-24.3-24.694c-4.882-2.014-8.023-6.7-8.023-12.008
				c0-2.414,0.669-4.769,1.939-6.822c-1.27-5.732-1.939-11.178-1.939-15.758c0-21.375,14.5-38.765,32.323-38.765
				c17.824,0,32.324,17.39,32.324,38.765c0,4.578-0.667,10.021-1.939,15.758c1.272,2.055,1.939,4.41,1.939,6.822
				c0,5.309-3.142,9.994-8.023,12.008C718.832-191.273,709.985-182.274,701.34-182.274z M701.34-278.967
				c-17.078,0-30.976,16.78-30.976,37.411c0,4.556,0.678,9.995,1.97,15.734l0.058,0.276l-0.154,0.241
				c-1.224,1.89-1.874,4.083-1.874,6.329c0,4.844,2.916,9.103,7.43,10.854l0.264,0.102l0.111,0.259
				c6.595,15.338,15.044,24.136,23.171,24.136c8.125,0,16.576-8.798,23.171-24.136l0.115-0.259l0.265-0.102
				c4.511-1.752,7.425-6.011,7.425-10.854c0-2.246-0.65-4.434-1.872-6.329l-0.156-0.241l0.059-0.276
				c1.291-5.741,1.97-11.183,1.97-15.734C732.316-262.187,718.421-278.967,701.34-278.967z"/>
		</g>
	</g>
</g>
<g>
	<circle fill="#B1C920" cx="225" cy="-295" r="32"/>
	<g>
		<g>
			<g>
				<path fill="#D3D3D3" d="M249.681-299.003c0-4.965-3.357-8.991-7.498-8.991c-4.139,0-7.496,4.026-7.496,8.991
					c0,1.105,0.167,2.401,0.469,3.75c-0.296,0.455-0.469,0.997-0.469,1.58c0,1.237,0.773,2.29,1.862,2.71
					c1.373,3.183,3.388,5.794,5.634,5.794c2.247,0,4.262-2.611,5.636-5.794c1.088-0.42,1.862-1.474,1.862-2.71
					c0-0.583-0.174-1.125-0.47-1.58C249.514-296.602,249.681-297.898,249.681-299.003z"/>
			</g>
			<g opacity="0.7">
				<path fill="#6B6B6B" d="M242.184-285.01c-2.046,0-4.143-2.125-5.755-5.828c-1.156-0.477-1.9-1.582-1.9-2.835
					c0-0.57,0.158-1.125,0.459-1.61c-0.301-1.352-0.459-2.638-0.459-3.72c0-5.046,3.434-9.149,7.655-9.149
					c4.222,0,7.656,4.104,7.656,9.149c0,1.081-0.158,2.366-0.459,3.72c0.302,0.485,0.459,1.041,0.459,1.61
					c0,1.253-0.744,2.359-1.9,2.835C246.327-287.134,244.231-285.01,242.184-285.01z M242.184-307.833
					c-4.044,0-7.336,3.961-7.336,8.831c0,1.077,0.161,2.36,0.466,3.713l0.014,0.067l-0.037,0.056
					c-0.29,0.446-0.443,0.963-0.443,1.493c0,1.144,0.69,2.149,1.758,2.562l0.062,0.024l0.027,0.061
					c1.562,3.622,3.563,5.698,5.488,5.698s3.927-2.076,5.489-5.698l0.027-0.061l0.063-0.024c1.068-0.413,1.759-1.418,1.759-2.562
					c0-0.53-0.154-1.046-0.443-1.493l-0.037-0.056l0.014-0.067c0.306-1.354,0.467-2.639,0.467-3.713
					C249.521-303.872,246.229-307.833,242.184-307.833z"/>
			</g>
		</g>
		<g>
			<path fill="#585E49" d="M248.786-291.886c-0.325,0.438-0.584,0.785-1.101,0.985c-1.374,3.182-3.295,5.792-5.542,5.792
				c-2.247,0-4.214-2.61-5.589-5.792c-0.518-0.2-1.302-0.547-1.627-0.985c-1.566,1.163-2.926,3.021-2.926,5.121v2.597
				c3,2.045,5.95,3.266,9.551,3.266c3.556,0,6.449-1.189,9.449-3.185v-2.678C251-288.866,250.352-290.722,248.786-291.886z"/>
			<path fill="#6B6B6B" d="M242.023-280.64c-3.534,0-7.004-1.148-9.796-3.32L232-284.04v-2.726c0-2.041,1.167-4.033,2.914-5.331
				l0.273-0.158l0.188,0.211c0.265,0.357,0.754,0.692,1.284,0.897l0.11,0.039l0.047,0.102c1.548,3.581,3.509,5.634,5.377,5.634
				c1.857,0,3.811-2.054,5.357-5.634l0.044-0.102l0.104-0.039c0.415-0.161,0.751-0.437,1.093-0.897l0.157-0.211l0.363,0.158
				c1.611,1.197,2.689,3.141,2.689,5.331v2.808l-0.256,0.079C248.955-281.76,245.494-280.64,242.023-280.64z M233-284.297
				c2,2.05,5.677,3.132,9.05,3.132c3.314,0,5.95-1.055,8.95-3.054v-2.546c0-1.928-0.687-3.645-2.038-4.753
				c-0.324,0.387-0.616,0.647-1.013,0.819c-0.977,2.232-2.972,5.853-5.774,5.853c-2.817,0-4.826-3.619-5.804-5.852
				c-0.486-0.203-0.799-0.495-1.108-0.826c-1.495,1.199-2.263,2.961-2.263,4.759V-284.297z"/>
		</g>
		<g>
			
				<ellipse transform="matrix(0.7072 -0.707 0.707 0.7072 281.8627 86.6882)" fill="#8E8E8E" cx="245.603" cy="-296.991" rx="2.476" ry="1.517"/>
		</g>
		<g>
			
				<ellipse transform="matrix(0.7073 -0.7069 0.7069 0.7073 282.2061 86.5373)" fill="#212121" cx="245.603" cy="-297.516" rx="2.476" ry="1.517"/>
		</g>
		<g>
			
				<ellipse transform="matrix(-0.7072 -0.707 0.707 -0.7072 617.7698 -338.145)" fill="#8E8E8E" cx="238.867" cy="-296.991" rx="2.476" ry="1.517"/>
		</g>
		<g>
			
				<ellipse transform="matrix(-0.7073 -0.707 0.707 -0.7073 618.1378 -339.0677)" fill="#212121" cx="238.867" cy="-297.516" rx="2.475" ry="1.517"/>
		</g>
		<g>
			<path fill="#B5B5B5" d="M249.615-299.968c-0.237,0.203-0.227,0.427-0.338,0.69c-0.146,0.354-0.344,0.691-0.524,1.029
				c-0.354,0.665-0.722,1.325-1.01,2.023c-0.246,0.593-0.357,1.227-0.578,1.827c-0.149,0.405-0.25,0.827-0.384,1.239
				c-0.708,2.177-1.706,4.152-3.345,5.794c-0.531,0.533-1.146,0.982-1.881,1.187c-0.389,0.109-0.771,0.101-1.165,0.155
				c-0.176,0.024-0.189,0.163-0.069,0.294c0.149,0.166,0.461,0.237,0.671,0.299c0.297,0.086,0.608,0.128,0.918,0.139
				c0.216,0.008,0.42-0.04,0.637-0.04c0.391,0,0.738-0.007,1.116-0.107c0.572-0.151,1.039-0.63,1.409-1.067
				c0.191-0.225,0.466-0.383,0.627-0.625c0.165-0.25,0.308-0.526,0.456-0.778c0.157-0.274,0.406-0.469,0.569-0.723
				c0.134-0.208,0.268-0.432,0.367-0.661c0.051-0.121,0.116-0.234,0.169-0.34c0.11-0.218,0.224-0.426,0.355-0.631
				c0.098-0.153,0.145-0.355,0.235-0.513c0.066-0.117,0.191-0.173,0.259-0.288c0.141-0.243,0.504-0.306,0.738-0.479
				c0.381-0.284,0.594-0.774,0.743-1.211c0.086-0.256,0.114-0.46,0.077-0.721c-0.037-0.25,0.02-0.504-0.028-0.752
				c-0.023-0.13-0.055-0.245-0.078-0.377c-0.042-0.235-0.155-0.351-0.263-0.534c-0.14-0.242,0.011-0.5,0.132-0.702
				c0.098-0.166,0.093-0.45,0.093-0.652c0-0.13,0.024-0.24,0.039-0.363c0.016-0.114-0.021-0.218-0.026-0.332
				c-0.008-0.184-0.015-0.378-0.013-0.56c0.002-0.121,0.028-0.226,0.07-0.325c0.1-0.236,0.118-0.469,0.118-0.736
				c0-0.214,0.021-0.418,0.013-0.625C249.716-299.575,249.703-299.872,249.615-299.968"/>
		</g>
		<g>
			<g>
				<path fill="#6B6B6B" d="M242.184-285.01c-2.046,0-4.143-2.125-5.755-5.828c-1.156-0.477-1.9-1.582-1.9-2.835
					c0-0.57,0.158-1.125,0.459-1.61c-0.301-1.352-0.459-2.638-0.459-3.72c0-5.046,3.434-9.149,7.655-9.149
					c4.222,0,7.656,4.104,7.656,9.149c0,1.081-0.158,2.366-0.459,3.72c0.302,0.485,0.459,1.041,0.459,1.61
					c0,1.253-0.744,2.359-1.9,2.835C246.327-287.134,244.231-285.01,242.184-285.01z M242.184-307.833
					c-4.044,0-7.336,3.961-7.336,8.831c0,1.077,0.161,2.36,0.467,3.713l0.013,0.067l-0.037,0.056
					c-0.29,0.446-0.443,0.963-0.443,1.493c0,1.144,0.69,2.149,1.759,2.562l0.063,0.024l0.026,0.061
					c1.562,3.622,3.563,5.698,5.488,5.698s3.927-2.076,5.489-5.698l0.027-0.061l0.063-0.024c1.068-0.413,1.759-1.418,1.759-2.562
					c0-0.53-0.154-1.046-0.443-1.493l-0.037-0.056l0.014-0.067c0.306-1.354,0.467-2.639,0.467-3.713
					C249.521-303.872,246.229-307.833,242.184-307.833z"/>
			</g>
		</g>
		<g>
			<g>
				<path fill="#D3D3D3" d="M215.681-299.003c0-4.965-3.357-8.991-7.498-8.991c-4.139,0-7.496,4.026-7.496,8.991
					c0,1.105,0.167,2.401,0.469,3.75c-0.296,0.455-0.469,0.997-0.469,1.58c0,1.237,0.773,2.29,1.862,2.71
					c1.373,3.183,3.388,5.794,5.634,5.794c2.247,0,4.262-2.611,5.636-5.794c1.088-0.42,1.862-1.474,1.862-2.71
					c0-0.583-0.174-1.125-0.47-1.58C215.514-296.602,215.681-297.898,215.681-299.003z"/>
			</g>
			<g opacity="0.7">
				<path fill="#6B6B6B" d="M208.184-285.01c-2.046,0-4.143-2.125-5.755-5.828c-1.156-0.477-1.9-1.582-1.9-2.835
					c0-0.57,0.158-1.125,0.459-1.61c-0.301-1.352-0.459-2.638-0.459-3.72c0-5.046,3.434-9.149,7.655-9.149
					c4.222,0,7.656,4.104,7.656,9.149c0,1.081-0.158,2.366-0.459,3.72c0.302,0.485,0.459,1.041,0.459,1.61
					c0,1.253-0.744,2.359-1.9,2.835C212.327-287.134,210.231-285.01,208.184-285.01z M208.184-307.833
					c-4.044,0-7.336,3.961-7.336,8.831c0,1.077,0.161,2.36,0.466,3.713l0.014,0.067l-0.037,0.056
					c-0.29,0.446-0.443,0.963-0.443,1.493c0,1.144,0.69,2.149,1.758,2.562l0.062,0.024l0.027,0.061
					c1.562,3.622,3.563,5.698,5.488,5.698s3.927-2.076,5.489-5.698l0.027-0.061l0.063-0.024c1.068-0.413,1.759-1.418,1.759-2.562
					c0-0.53-0.154-1.046-0.443-1.493l-0.037-0.056l0.014-0.067c0.306-1.354,0.467-2.639,0.467-3.713
					C215.521-303.872,212.229-307.833,208.184-307.833z"/>
			</g>
		</g>
		<g>
			<path fill="#585E49" d="M214.785-291.886c-0.324,0.438-0.583,0.785-1.101,0.985c-1.374,3.182-3.295,5.792-5.542,5.792
				c-2.247,0-4.215-2.61-5.589-5.792c-0.518-0.2-1.302-0.547-1.627-0.985c-1.566,1.163-2.927,3.021-2.927,5.121v2.597
				c3,2.045,5.95,3.266,9.551,3.266c3.556,0,6.449-1.189,9.449-3.185v-2.678C217-288.866,216.352-290.722,214.785-291.886z"/>
			<path fill="#6B6B6B" d="M208.023-280.64c-3.534,0-7.004-1.148-9.797-3.32L198-284.04v-2.726c0-2.041,1.167-4.033,2.914-5.331
				l0.273-0.158l0.188,0.211c0.265,0.357,0.754,0.692,1.284,0.897l0.11,0.039l0.047,0.102c1.548,3.581,3.509,5.634,5.377,5.634
				c1.857,0,3.811-2.054,5.357-5.634l0.044-0.102l0.104-0.039c0.414-0.161,0.751-0.437,1.093-0.897l0.157-0.211l0.363,0.158
				c1.611,1.197,2.689,3.141,2.689,5.331v2.808l-0.256,0.079C214.955-281.76,211.494-280.64,208.023-280.64z M199-284.297
				c2,2.05,5.677,3.132,9.05,3.132c3.314,0,5.95-1.055,8.95-3.054v-2.546c0-1.928-0.687-3.645-2.037-4.753
				c-0.325,0.387-0.617,0.647-1.014,0.819c-0.977,2.232-2.972,5.853-5.774,5.853c-2.816,0-4.825-3.619-5.803-5.852
				c-0.486-0.203-0.799-0.495-1.108-0.826c-1.495,1.199-2.263,2.961-2.263,4.759V-284.297z"/>
		</g>
		<g>
			
				<ellipse transform="matrix(0.7072 -0.707 0.707 0.7072 271.9092 62.6514)" fill="#8E8E8E" cx="211.603" cy="-296.991" rx="2.476" ry="1.517"/>
		</g>
		<g>
			
				<ellipse transform="matrix(0.7073 -0.7069 0.7069 0.7073 272.2544 62.5022)" fill="#212121" cx="211.603" cy="-297.516" rx="2.476" ry="1.517"/>
		</g>
		<g>
			
				<ellipse transform="matrix(-0.7072 -0.707 0.707 -0.7072 559.7247 -362.1831)" fill="#8E8E8E" cx="204.867" cy="-296.991" rx="2.476" ry="1.517"/>
		</g>
		<g>
			
				<ellipse transform="matrix(-0.7073 -0.707 0.707 -0.7073 560.091 -363.1042)" fill="#212121" cx="204.867" cy="-297.516" rx="2.475" ry="1.517"/>
		</g>
		<g>
			<path fill="#B5B5B5" d="M215.615-299.968c-0.237,0.203-0.227,0.427-0.338,0.69c-0.146,0.354-0.344,0.691-0.524,1.029
				c-0.354,0.665-0.722,1.325-1.01,2.023c-0.246,0.593-0.357,1.227-0.578,1.827c-0.149,0.405-0.25,0.827-0.384,1.239
				c-0.708,2.177-1.706,4.152-3.345,5.794c-0.531,0.533-1.146,0.982-1.881,1.187c-0.389,0.109-0.771,0.101-1.165,0.155
				c-0.176,0.024-0.189,0.163-0.069,0.294c0.149,0.166,0.461,0.237,0.671,0.299c0.297,0.086,0.608,0.128,0.918,0.139
				c0.216,0.008,0.42-0.04,0.637-0.04c0.391,0,0.738-0.007,1.116-0.107c0.572-0.151,1.039-0.63,1.409-1.067
				c0.191-0.225,0.466-0.383,0.627-0.625c0.165-0.25,0.308-0.526,0.456-0.778c0.157-0.274,0.406-0.469,0.569-0.723
				c0.134-0.208,0.268-0.432,0.367-0.661c0.051-0.121,0.116-0.234,0.169-0.34c0.11-0.218,0.224-0.426,0.355-0.631
				c0.098-0.153,0.145-0.355,0.235-0.513c0.066-0.117,0.191-0.173,0.259-0.288c0.141-0.243,0.504-0.306,0.738-0.479
				c0.381-0.284,0.594-0.774,0.743-1.211c0.086-0.256,0.114-0.46,0.077-0.721c-0.037-0.25,0.02-0.504-0.028-0.752
				c-0.023-0.13-0.055-0.245-0.078-0.377c-0.043-0.235-0.155-0.351-0.263-0.534c-0.14-0.242,0.011-0.5,0.132-0.702
				c0.098-0.166,0.093-0.45,0.093-0.652c0-0.13,0.024-0.24,0.039-0.363c0.016-0.114-0.021-0.218-0.026-0.332
				c-0.008-0.184-0.015-0.378-0.013-0.56c0.002-0.121,0.028-0.226,0.07-0.325c0.1-0.236,0.118-0.469,0.118-0.736
				c0-0.214,0.021-0.418,0.013-0.625C215.716-299.575,215.703-299.872,215.615-299.968"/>
		</g>
		<g>
			<g>
				<path fill="#6B6B6B" d="M208.184-285.01c-2.046,0-4.143-2.125-5.755-5.828c-1.156-0.477-1.9-1.582-1.9-2.835
					c0-0.57,0.158-1.125,0.459-1.61c-0.301-1.352-0.459-2.638-0.459-3.72c0-5.046,3.434-9.149,7.655-9.149
					c4.222,0,7.656,4.104,7.656,9.149c0,1.081-0.158,2.366-0.459,3.72c0.302,0.485,0.459,1.041,0.459,1.61
					c0,1.253-0.744,2.359-1.9,2.835C212.327-287.134,210.231-285.01,208.184-285.01z M208.184-307.833
					c-4.044,0-7.336,3.961-7.336,8.831c0,1.077,0.161,2.36,0.467,3.713l0.013,0.067l-0.037,0.056
					c-0.29,0.446-0.443,0.963-0.443,1.493c0,1.144,0.69,2.149,1.759,2.562l0.063,0.024l0.026,0.061
					c1.562,3.622,3.563,5.698,5.488,5.698s3.927-2.076,5.489-5.698l0.027-0.061l0.063-0.024c1.068-0.413,1.759-1.418,1.759-2.562
					c0-0.53-0.154-1.046-0.443-1.493l-0.037-0.056l0.014-0.067c0.306-1.354,0.467-2.639,0.467-3.713
					C215.521-303.872,212.229-307.833,208.184-307.833z"/>
			</g>
		</g>
		<g>
			<path fill="#D3D3D3" d="M239.419-303.589c0-9.448-6.389-17.107-14.266-17.107c-7.877,0-14.265,7.659-14.265,17.107
				c0,2.1,0.315,4.567,0.893,7.133c-0.564,0.867-0.893,1.899-0.893,3.009c0,2.353,1.471,4.357,3.542,5.157
				c2.613,6.056,6.448,11.024,10.723,11.024c4.275,0,8.109-4.968,10.724-11.024c2.07-0.799,3.542-2.804,3.542-5.157
				c0-1.11-0.33-2.142-0.894-3.009C239.102-299.022,239.419-301.489,239.419-303.589z"/>
			<path opacity="0.7" fill="#6B6B6B" d="M225.153-276.962c-3.895,0-7.884-4.042-10.952-11.092c-2.2-0.905-3.616-3.009-3.616-5.393
				c0-1.084,0.302-2.142,0.874-3.064c-0.572-2.575-0.874-5.021-0.874-7.078c0-9.601,6.535-17.411,14.568-17.411
				s14.568,7.81,14.568,17.411c0,2.056-0.301,4.501-0.874,7.078c0.573,0.923,0.874,1.981,0.874,3.064
				c0,2.384-1.416,4.488-3.616,5.393C233.037-281.004,229.05-276.962,225.153-276.962z M225.153-320.392
				c-7.697,0-13.961,7.538-13.961,16.803c0,2.046,0.306,4.489,0.886,7.067l0.028,0.125l-0.069,0.107
				c-0.552,0.849-0.845,1.834-0.845,2.843c0,2.175,1.314,4.088,3.347,4.875l0.119,0.046l0.052,0.116
				c2.973,6.889,6.78,10.841,10.443,10.841c3.662,0,7.471-3.952,10.443-10.841l0.052-0.116l0.119-0.046
				c2.033-0.787,3.347-2.7,3.347-4.875c0-1.009-0.293-1.992-0.844-2.843l-0.07-0.107l0.026-0.125
				c0.582-2.579,0.888-5.022,0.888-7.067C239.114-312.854,232.852-320.392,225.153-320.392z"/>
		</g>
		<path fill="#585E49" stroke="#6B6B6B" stroke-miterlimit="10" d="M238.002-290.047c-0.619,0.833-1.254,1.492-2.238,1.873
			c-2.615,6.055-6.342,11.023-10.619,11.023c-4.274,0-8.055-4.968-10.671-11.023c-0.985-0.38-2.133-1.039-2.752-1.873
			c-2.979,2.214-5.223,5.748-5.223,9.745v4.942c5,3.889,11.649,6.36,18.5,6.36c6.765,0,12.5-2.409,17.5-6.208v-5.095
			C242.5-284.299,240.982-287.832,238.002-290.047z"/>
		
			<ellipse transform="matrix(0.7073 -0.7069 0.7069 0.7073 279.7011 76.0245)" fill="#8E8E8E" cx="231.659" cy="-299.76" rx="4.711" ry="2.887"/>
		
			<ellipse transform="matrix(0.7073 -0.7069 0.7069 0.7073 280.4076 75.7319)" fill="#212121" cx="231.659" cy="-300.76" rx="4.711" ry="2.887"/>
		
			<ellipse transform="matrix(-0.7073 -0.7069 0.7069 -0.7073 585.5352 -357.0611)" fill="#8E8E8E" cx="218.841" cy="-299.76" rx="4.71" ry="2.886"/>
		
			<ellipse transform="matrix(-0.7073 -0.7069 0.7069 -0.7073 586.2418 -358.7675)" fill="#212121" cx="218.841" cy="-300.76" rx="4.71" ry="2.886"/>
		<path fill="#B5B5B5" d="M239.293-305.425c-0.449,0.386-0.433,0.811-0.644,1.314c-0.276,0.672-0.654,1.316-0.996,1.958
			c-0.673,1.265-1.373,2.523-1.922,3.848c-0.468,1.129-0.68,2.333-1.099,3.477c-0.283,0.772-0.476,1.575-0.731,2.357
			c-1.347,4.145-3.246,7.902-6.364,11.025c-1.012,1.015-2.182,1.87-3.579,2.26c-0.74,0.208-1.468,0.191-2.218,0.293
			c-0.336,0.046-0.358,0.312-0.132,0.562c0.285,0.316,0.878,0.452,1.276,0.568c0.566,0.165,1.158,0.244,1.746,0.265
			c0.411,0.014,0.801-0.076,1.212-0.076c0.745,0,1.404-0.013,2.122-0.203c1.09-0.29,1.979-1.201,2.682-2.031
			c0.363-0.428,0.888-0.73,1.193-1.191c0.313-0.475,0.587-1,0.867-1.48c0.298-0.52,0.771-0.891,1.083-1.375
			c0.254-0.396,0.51-0.822,0.697-1.259c0.098-0.229,0.221-0.444,0.323-0.645c0.209-0.414,0.426-0.812,0.675-1.201
			c0.188-0.292,0.276-0.677,0.449-0.976c0.126-0.225,0.363-0.329,0.492-0.55c0.269-0.461,0.96-0.581,1.403-0.912
			c0.727-0.541,1.131-1.473,1.414-2.304c0.164-0.486,0.216-0.875,0.145-1.374c-0.07-0.474,0.039-0.958-0.053-1.431
			c-0.044-0.246-0.104-0.465-0.149-0.716c-0.08-0.446-0.294-0.668-0.499-1.017c-0.266-0.46,0.021-0.951,0.25-1.336
			c0.187-0.313,0.178-0.856,0.178-1.241c0-0.247,0.045-0.456,0.073-0.69c0.031-0.218-0.039-0.417-0.049-0.634
			c-0.016-0.349-0.029-0.718-0.024-1.065c0.004-0.229,0.053-0.429,0.132-0.617c0.19-0.449,0.224-0.891,0.224-1.4
			c0-0.407,0.041-0.795,0.025-1.189C239.486-304.678,239.462-305.243,239.293-305.425"/>
		<g>
			<path fill="#6B6B6B" d="M225.153-276.962c-3.895,0-7.884-4.042-10.952-11.092c-2.2-0.905-3.616-3.009-3.616-5.393
				c0-1.084,0.302-2.142,0.874-3.064c-0.572-2.575-0.874-5.021-0.874-7.078c0-9.601,6.535-17.411,14.568-17.411
				s14.568,7.81,14.568,17.411c0,2.056-0.301,4.501-0.874,7.078c0.573,0.923,0.874,1.981,0.874,3.064
				c0,2.384-1.416,4.488-3.616,5.393C233.037-281.004,229.05-276.962,225.153-276.962z M225.153-320.392
				c-7.697,0-13.961,7.538-13.961,16.803c0,2.046,0.306,4.489,0.888,7.067l0.026,0.125l-0.069,0.107
				c-0.552,0.849-0.845,1.834-0.845,2.843c0,2.175,1.314,4.088,3.349,4.875l0.119,0.046l0.05,0.116
				c2.973,6.889,6.78,10.841,10.443,10.841c3.662,0,7.471-3.952,10.443-10.841l0.052-0.116l0.119-0.046
				c2.033-0.787,3.347-2.7,3.347-4.875c0-1.009-0.293-1.992-0.844-2.843l-0.07-0.107l0.026-0.125
				c0.582-2.579,0.888-5.022,0.888-7.067C239.114-312.854,232.852-320.392,225.153-320.392z"/>
		</g>
	</g>
</g>
<g>
	<circle fill="#41B3E0" cx="235" cy="-381" r="32"/>
	<g>
		<path fill="#FFFFFF" d="M217.625-391H252.5c1.38,0,2.5-1.119,2.5-2.5s-1.12-2.5-2.5-2.5h-35c-1.381,0-2.5,1.119-2.5,2.5
			S216.244-391,217.625-391z"/>
		<path fill="#FFFFFF" d="M242.5-387h-25c-1.381,0-2.5,1.119-2.5,2.5s1.119,2.5,2.5,2.5h25c1.38,0,2.5-1.119,2.5-2.5
			S243.88-387,242.5-387z"/>
		<path fill="#FFFFFF" d="M242.5-369h-25c-1.381,0-2.5,1.119-2.5,2.5s1.119,2.5,2.5,2.5h25c1.38,0,2.5-1.119,2.5-2.5
			S243.88-369,242.5-369z"/>
		<path fill="#FFFFFF" d="M252.5-378h-35c-1.381,0-2.5,1.119-2.5,2.5s1.119,2.5,2.5,2.5h35c1.38,0,2.5-1.119,2.5-2.5
			S253.88-378,252.5-378z"/>
	</g>
</g>
<g>
	<circle fill="#41B3E0" cx="90" cy="-357" r="32"/>
	<g>
		<path fill="#FFFFFF" d="M108-367.5c0-1.381-1.119-2.5-2.5-2.5h-34c-1.381,0-2.5,1.119-2.5,2.5l0,0c0,1.381,1.119,2.5,2.5,2.5h34
			C106.881-365,108-366.119,108-367.5L108-367.5z"/>
		<path fill="#FFFFFF" d="M108-358.5c0-1.381-1.119-2.5-2.5-2.5h-24c-1.381,0-2.5,1.119-2.5,2.5l0,0c0,1.381,1.119,2.5,2.5,2.5h24
			C106.881-356,108-357.119,108-358.5L108-358.5z"/>
		<path fill="#FFFFFF" d="M108-349.5c0-1.381-1.119-2.5-2.5-2.5h-34c-1.381,0-2.5,1.119-2.5,2.5l0,0c0,1.381,1.119,2.5,2.5,2.5h34
			C106.881-347,108-348.119,108-349.5L108-349.5z"/>
		<path fill="#FFFFFF" d="M108-340.5c0-1.381-1.119-2.5-2.5-2.5h-24c-1.381,0-2.5,1.119-2.5,2.5l0,0c0,1.381,1.119,2.5,2.5,2.5h24
			C106.881-338,108-339.119,108-340.5L108-340.5z"/>
	</g>
</g>
<g>
	<circle fill="#41B3E0" cx="418" cy="-252" r="32"/>
	<g>
		<path fill="#FFFFFF" d="M438-264.5c0-1.381-1.119-2.5-2.5-2.5h-34c-1.381,0-2.5,1.119-2.5,2.5l0,0c0,1.381,1.119,2.5,2.5,2.5h34
			C436.881-262,438-263.119,438-264.5L438-264.5z"/>
		<path fill="#FFFFFF" d="M433-255.5c0-1.381-1.119-2.5-2.5-2.5h-24c-1.381,0-2.5,1.119-2.5,2.5l0,0c0,1.381,1.119,2.5,2.5,2.5h24
			C431.881-253,433-254.119,433-255.5L433-255.5z"/>
		<path fill="#FFFFFF" d="M438-246.5c0-1.381-1.119-2.5-2.5-2.5h-34c-1.381,0-2.5,1.119-2.5,2.5l0,0c0,1.381,1.119,2.5,2.5,2.5h34
			C436.881-244,438-245.119,438-246.5L438-246.5z"/>
		<path fill="#FFFFFF" d="M433-237.5c0-1.381-1.119-2.5-2.5-2.5h-24c-1.381,0-2.5,1.119-2.5,2.5l0,0c0,1.381,1.119,2.5,2.5,2.5h24
			C431.881-235,433-236.119,433-237.5L433-237.5z"/>
	</g>
</g>
<g>
	<path fill="#ED1C24" d="M260-93c-15.973,0-29.208,11.702-31.608,27H235l3,5l4.334-5h3.332L249-63h4l1-3l4,5l2.5-5h4.5
		c0.553,0,1,0.448,1,1l5,6v3l-5,4c-1,1-0.447,1-1,1h-35.398c4.2,12.774,16.217,22,30.398,22c17.674,0,32-14.326,32-32
		C292-78.673,277.674-93,260-93z"/>
	<path fill="#ED1C24" d="M265-56h-36.608c0.159,1.017,0.363,2.018,0.616,3H264L265-56z"/>
</g>
<g>
	<circle fill="#67308C" cx="182.278" cy="32" r="32"/>
	<g>
		<path fill="#FFFFFF" d="M193.85,42.835c1.218-0.44,2.401-0.867,3.623-1.308c0.331,0.815,0.653,1.606,0.991,2.437
			c-0.12,0.059-0.225,0.119-0.337,0.164c-1.931,0.78-3.865,1.552-5.79,2.345c-0.323,0.133-0.431,0.035-0.549-0.251
			c-1.534-3.709-3.083-7.411-4.614-11.121c-0.127-0.308-0.28-0.403-0.609-0.402c-3.705,0.01-7.41,0.003-11.114,0
			c-0.163,0-0.325,0-0.529,0c-0.043-0.524-0.089-1.012-0.122-1.5c-0.137-1.979-0.268-3.959-0.406-5.938
			c-0.165-2.357-0.335-4.714-0.502-7.071c-0.023-0.328-0.064-0.656-0.058-0.984c0.017-0.909-0.286-1.758-0.452-2.633
			c-0.326-1.724,1.006-3.568,2.69-3.801c1.93-0.267,3.637,1.073,3.833,2.956c0.162,1.566-0.77,3.369-2.938,3.777
			c0.119,2.231,0.239,4.472,0.362,6.769c1.412,0,2.809,0,4.207,0c1.4,0,2.8,0,4.251,0c0,0.596,0,1.149,0,1.702
			c0,0.367-0.018,0.735,0.005,1.1c0.021,0.319-0.098,0.407-0.41,0.406c-2.39-0.011-4.78-0.006-7.169-0.006c-0.162,0-0.324,0-0.553,0
			c0.047,0.722,0.091,1.405,0.135,2.087c1.272,0,2.497,0.005,3.722-0.001c2.377-0.012,4.754-0.022,7.131-0.054
			c0.314-0.004,0.439,0.115,0.55,0.378c1.468,3.477,2.945,6.95,4.42,10.423C193.687,42.47,193.76,42.63,193.85,42.835z"/>
		<path fill="#FFFFFF" d="M173.203,26.894c0.084,1.182,0.174,2.302,0.23,3.424c0.007,0.148-0.125,0.353-0.254,0.45
			c-1.041,0.79-1.9,1.731-2.559,2.864c-2.737,4.708-0.649,10.895,4.381,12.958c3.645,1.495,8.022,0.174,10.299-3.091
			c0.771-1.106,1.286-2.311,1.542-3.631c0.03-0.155,0.07-0.308,0.123-0.535c0.092,0.158,0.154,0.248,0.201,0.346
			c0.612,1.275,1.229,2.547,1.824,3.83c0.066,0.142,0.062,0.379-0.013,0.515c-1.909,3.447-4.759,5.683-8.652,6.397
			c-3.895,0.714-7.339-0.374-10.247-3.048c-2.307-2.122-3.626-4.794-3.925-7.901c-0.514-5.335,2.249-10.131,6.751-12.452
			C172.979,26.981,173.061,26.953,173.203,26.894z"/>
	</g>
</g>
<g>
	<g>
		<path fill="#00AF57" d="M144.263-281.918c-8.73,0-16.326,5.065-20.188,12.251c4.549-6.174,11.844-10.333,20.076-10.333
			c8.732,0,16.409,4.681,20.874,11.479C161.381-276.308,153.45-281.918,144.263-281.918z"/>
		<path fill="#00AF57" d="M146-316c-17.674,0-32,14.327-32,32c0,7.025,2.269,13.518,6.107,18.795
			C122.916-275.73,132.656-284,144.263-284c12.62,0,23.042,9.772,24.737,21.597c-0.246,0.3-0.521,0.574-0.778,0.865
			c0.042,0.147,0.075,0.298,0.11,0.447C174.294-266.902,178-275.017,178-284C178-301.673,163.674-316,146-316z"/>
	</g>
	<path fill="#FFFFFF" d="M146-252c8.659,0,16.509-3.444,22.269-9.031c-0.066-0.269-0.124-0.539-0.199-0.805
		c0.258-0.291,0.532-0.565,0.778-0.865c-1.695-11.824-12.118-21.597-24.737-21.597c-11.628,0-21.386,8.3-24.174,18.855
		C125.739-257.31,135.246-252,146-252z M144.111-282.216c9.188,0,17.118,5.61,20.763,13.397c-4.465-6.799-12.142-11.48-20.874-11.48
		c-8.232,0-15.527,4.159-20.076,10.333C127.785-277.15,135.381-282.216,144.111-282.216z"/>
	<ellipse fill="#FFFFFF" cx="144.02" cy="-289.499" rx="10.98" ry="15.499"/>
	<path fill="#D6D6D6" d="M151.356-301H151c2,4,1,31-14,22c-0.146,0.34-0.262,0.658-0.376,0.976c1.952,2.493,4.534,4.024,7.376,4.024
		c6.075,0,11-6.94,11-15.499C155-294.068,153.588-298.163,151.356-301z"/>
</g>
<g>
	<circle fill="#E04848" cx="558" cy="0" r="32"/>
	<path opacity="0.6" fill="#303030" d="M570-15l-7,4l-18.5,24.5l18.159,18.158c13.943-2.034,24.965-13.056,27-27L570-15z"/>
	<g>
		<path fill="#D3D3D3" d="M558,17c-4.055,0-6.574-0.32-7.548-0.475c-3.816-0.225-6.918-3.074-7.435-6.72
			C542.477,8.24,542,5.442,542,0s0.477-8.24,1.017-9.806c0.52-3.665,3.653-6.525,7.497-6.724C551.459-16.662,554.244-17,558-17
			s6.54,0.338,7.485,0.471c3.891,0.2,7.054,3.129,7.516,6.856C573.484-8.129,574-5.25,574,0s-0.516,8.129-0.999,9.674
			c-0.459,3.707-3.59,6.623-7.453,6.852C564.574,16.68,562.055,17,558,17z"/>
		<g>
			<path fill="#FFFFFF" d="M569.313-12.648C566.094-9.047,561.347,0.326,558,2c-3.123,1.562-8.672,6.773-11.436,10.415
				c0.644,1.204,1.877,2.029,3.311,2.029c0,0,2.708,0.556,8.125,0.556s8.125-0.556,8.125-0.556c2.094,0,3.792-1.74,3.792-3.889
				c0,0,1.083-2.223,1.083-10.556s-1.083-10.556-1.083-10.556C569.917-11.328,569.691-12.043,569.313-12.648z"/>
			<path fill="#F9F9F9" d="M558,2c3.347-1.674,8.094-11.047,11.313-14.648c-0.674-1.078-1.846-1.797-3.188-1.797
				c0,0-3.25-0.555-8.125-0.555s-8.125,0.555-8.125,0.555c-2.095,0-3.792,1.742-3.792,3.89c0,0-1.083,1.667-1.083,10.556
				c0,8.888,1.083,10.556,1.083,10.556c0,0.678,0.184,1.305,0.481,1.859C549.328,8.773,554.877,3.562,558,2z"/>
		</g>
		<path fill="#7F7F7F" d="M566,0h-6v-6c0-0.553-0.448-1-1-1s-1,0.447-1,1v6h-6v-6c0-0.553-0.448-1-1-1s-1,0.447-1,1V7
			c0,0.553,0.448,1,1,1s1-0.447,1-1V2h6v5c0,0.553,0.448,1,1,1s1-0.447,1-1V2h5v5c0,0.553,0.448,1,1,1s1-0.447,1-1V1
			C567,0.447,566.552,0,566,0z"/>
		<g opacity="0.5">
			<g>
				<path d="M551.272-11.783h-0.016l-0.915,0.313l-0.138-0.343l1.15-0.39h0.608v3.332h-0.689V-11.783z"/>
			</g>
			<g>
				<path d="M549.638,13v-0.277l0.559-0.343c1.345-0.811,1.953-1.241,1.96-1.743c0-0.339-0.259-0.651-1.045-0.651
					c-0.478,0-0.875,0.153-1.118,0.282l-0.227-0.318c0.365-0.194,0.883-0.338,1.491-0.338c1.135,0,1.613,0.492,1.613,0.969
					c0,0.615-0.705,1.112-1.815,1.789l-0.421,0.246v0.011H553V13H549.638z"/>
			</g>
			<g>
				<path d="M557.905-8.616c0.203,0.097,0.672,0.248,1.167,0.248c0.916,0,1.199-0.436,1.191-0.762
					c-0.008-0.55-0.672-0.785-1.361-0.785h-0.397v-0.399h0.397c0.518,0,1.175-0.199,1.175-0.664c0-0.314-0.267-0.592-0.923-0.592
					c-0.421,0-0.827,0.139-1.054,0.26l-0.186-0.387c0.275-0.151,0.81-0.303,1.377-0.303c1.037,0,1.507,0.459,1.507,0.936
					c0,0.405-0.324,0.749-0.972,0.925v0.012C560.473-10.03,561-9.668,561-9.117c0,0.628-0.656,1.178-1.92,1.178
					c-0.591,0-1.11-0.139-1.369-0.266L557.905-8.616z"/>
			</g>
			<g>
				<path d="M558.93,13v-0.907h-1.857v-0.298l1.783-2.127h0.584v2.07H560v0.354h-0.56V13H558.93z M558.93,11.738v-1.112
					c0-0.174,0.006-0.349,0.018-0.523h-0.018c-0.123,0.194-0.221,0.338-0.332,0.492l-0.978,1.133v0.01H558.93z"/>
			</g>
			<g>
				<path d="M564.932,9.591c0.308-0.046,0.748-0.072,1.167-0.072c0.65,0,1.069,0.087,1.363,0.282c0.238,0.154,0.37,0.39,0.37,0.656
					c0,0.456-0.391,0.759-0.887,0.882v0.016c0.363,0.092,0.58,0.338,0.692,0.697c0.154,0.481,0.266,0.815,0.363,0.948h-0.629
					c-0.077-0.098-0.182-0.394-0.315-0.825c-0.14-0.477-0.392-0.656-0.943-0.672h-0.573V13h-0.608V9.591z M565.54,11.164h0.622
					c0.65,0,1.062-0.261,1.062-0.656c0-0.445-0.44-0.641-1.083-0.646c-0.293,0-0.503,0.021-0.601,0.041V11.164z"/>
			</g>
		</g>
	</g>
</g>
<g>
	<circle fill="#262262" cx="32" cy="32" r="32"/>
	<g>
		<path fill="#6CD313" d="M24.646,33C23.314,33,22,32.017,22,30.809v-7.616C22,21.983,23.314,21,24.646,21h23.938
			C49.917,21,51,21.983,51,23.192v7.616C51,32.017,49.917,33,48.585,33H24.646z"/>
		<path fill="#DBDBDB" d="M48.585,22C49.643,22,50,22.258,50,23.192v7.616C50,31.742,49.643,33,48.585,33H24.646
			C23.589,33,23,31.742,23,30.809v-7.616C23,22.258,23.589,22,24.646,22H49 M48.585,21H24.646C23.039,21,22,21.708,22,23.192v7.616
			C22,32.293,23.039,34,24.646,34h23.939C50.192,34,51,32.293,51,30.809v-7.616C51,21.708,50.192,21,48.585,21L48.585,21z"/>
	</g>
	<path fill="#FFFFFF" d="M18,60.78c0.653,0.318,1.322,0.61,2,0.885V2.335c-0.678,0.274-1.347,0.566-2,0.886V60.78z"/>
	<path fill="#CCCCCC" d="M20,61.665c0.656,0.266,1.323,0.51,2,0.732V1.602c-0.677,0.223-1.344,0.467-2,0.733V61.665z"/>
	<text transform="matrix(1 0 0 1 23.6245 30.4199)" fill="#FFFFFF" font-family="'MyriadPro-Regular'" font-size="8.8161">Matera</text>
</g>
<g>
	<circle fill="#F5ECCF" cx="568" cy="-106" r="32"/>
	<g>
		<g>
			<path fill="#B5B5B5" d="M556.186-91.552c-0.036,0-0.064-0.009-0.099-0.017c-0.123-0.036-0.227-0.117-0.292-0.228
				c-0.261-0.447-0.261-0.447,2.958-3.058c0.306-0.247,0.641-0.52,0.973-0.79c-0.005-0.008-0.01-0.016-0.014-0.023
				c-0.017-0.027-0.222-0.378-0.396-0.676c-0.146,0.085-0.315,0.184-0.487,0.285l-0.683,0.398c-0.362,0.211-0.736,0.429-0.993,0.006
				c-0.014-0.015-0.213-0.266-0.409-0.513c-0.064-0.08-0.119-0.148-0.166-0.208c-0.157,0.093-0.352,0.206-0.547,0.32
				c-1.164,0.682-1.165,0.683-1.379,0.622c-0.112-0.031-0.21-0.101-0.275-0.195c-0.041-0.056-0.242-0.312-0.437-0.561
				c-0.055-0.069-0.102-0.13-0.143-0.183c-0.162,0.094-0.361,0.211-0.561,0.328l-0.669,0.39c-0.362,0.209-0.702,0.406-0.967,0.028
				c-0.01-0.015-0.02-0.029-0.027-0.045c-0.02-0.029-0.228-0.344-0.414-0.623c-0.014-0.021-0.027-0.041-0.041-0.062
				c-0.144,0.085-0.315,0.185-0.489,0.287c-1.189,0.695-1.188,0.695-1.4,0.638c-0.128-0.035-0.235-0.118-0.302-0.232
				c-0.201-0.35-0.246-0.428,1.225-1.685c-0.088,0.051-0.175,0.102-0.262,0.151l-3.363,1.947c-1.95,1.127-1.951,1.128-2.209,0.71
				c-0.146-0.247-0.165-0.282,0.326-1.115c-0.488,0.277-0.527,0.268-0.685,0.225c-0.128-0.034-0.237-0.117-0.304-0.231
				c-0.275-0.478-0.275-0.478,3.872-3.525c0.112-0.083,0.228-0.168,0.345-0.253c-0.068-0.039-0.114-0.114-0.174-0.212
				c-0.144-0.235-0.068-0.542,0.167-0.686c0.016-0.01,0.031-0.018,0.047-0.025c0.155-0.084,1.323-0.763,2.267-1.311
				c2.297-1.334,2.298-1.334,2.507-1.279c0.128,0.035,0.237,0.119,0.304,0.233c0.301,0.523,0.307,0.533-4.871,4.337
				c-0.527,0.388-1.1,0.809-1.632,1.202c0.085,0.174,0.042,0.301-0.382,1.021c0.934-0.539,2.148-1.243,3.285-1.901l3.337-1.932
				c1.919-1.108,1.918-1.106,2.18-0.72c0.262,0.457,0.262,0.457-2.438,2.719c-0.251,0.209-0.523,0.438-0.795,0.667
				c0.004,0.006,0.008,0.013,0.013,0.02c0.034,0.053,0.163,0.245,0.305,0.46c0.07,0.105,0.13,0.194,0.179,0.269
				c0.165-0.096,0.364-0.212,0.563-0.329l0.649-0.378c0.336-0.195,0.719-0.418,0.974,0.008c0.009,0.008,0.188,0.236,0.372,0.472
				c0.075,0.097,0.138,0.177,0.19,0.244c0.175-0.102,0.393-0.229,0.61-0.356c1.243-0.729,1.346-0.789,1.604-0.363
				c0.012,0.013,0.201,0.25,0.393,0.491c0.071,0.09,0.132,0.165,0.183,0.229c0.177-0.104,0.398-0.233,0.618-0.361
				c1.093-0.64,1.091-0.641,1.301-0.583c0.126,0.034,0.234,0.115,0.301,0.229c0.011,0.019,0.222,0.377,0.401,0.683
				c0.16-0.094,0.351-0.205,0.541-0.316c1.259-0.737,1.362-0.798,1.621-0.373c0.217,0.377,0.258,0.448-1.536,1.923
				c0.925-0.529,1.008-0.534,1.245-0.176c0.037,0.063,0.04,0.067,0.322,0.692c0.026,0.06,0.054,0.119,0.079,0.177
				c0.011-0.006,0.021-0.012,0.031-0.019c0.371-0.221,0.639-0.374,0.847-0.349c0.326-0.054,1.262-0.28,1.965-0.45
				c1.088-0.264,1.677-0.406,2.017-0.447c0.537-0.306,3.196-1.845,5.775-3.337c6.907-3.997,6.906-3.997,7.122-3.942l-0.131,0.481
				l-0.433,0.248l0.433-0.248l0.227,0.444c-0.181,0.097-3.654,2.106-6.718,3.88l-4.07,2.434c-1.426,0.823-1.942,1.2-2.197,1.2
				c0,0,0,0-0.001,0c-0.328,0-1.159,0.184-1.789,0.335c-1.207,0.293-1.838,0.406-2.19,0.444c-0.087,0.05-0.216,0.107-0.347,0.185
				c-0.673,0.399-0.685,0.397-0.899,0.337c-0.126-0.035-0.233-0.123-0.299-0.236c-0.021-0.034-0.024-0.043-0.331-0.726
				c-0.018-0.041-0.037-0.082-0.055-0.123c-0.548,0.315-1.496,0.864-2.365,1.368C556.765-91.777,556.375-91.552,556.186-91.552z"/>
		</g>
	</g>
	<path opacity="0.5" fill="#424242" d="M600-106c0-0.076-0.005-0.15-0.006-0.227l-29.561,6.002
		c-0.261,0.052-0.272,0.289-0.357,0.433c-0.328-0.055-0.565-0.009-0.823,0.045c-0.662,0.134-0.874,0.522-0.414,1.054l-4.063,3.215
		l-0.354,0.071c-0.585,0.119-0.585,0.603,0,1.079c0.586,0.478,1.536,0.768,2.122,0.649l0.354-0.072l8.646,0.436
		c0.711,0.354,1.457,0.315,2.195,0.479c0.256,0.057,0.302-0.257,0.389-0.398c0.332,0.058,0.531-0.025,0.791-0.078l19.89-4.038
		C599.579-100.104,600-103.002,600-106z"/>
	<g>
		<path fill="#353535" d="M568.772-97.565c0.585,0.586,0.585,1.536,0,2.122l-2.122,2.121c-0.585,0.586-1.535,0.586-2.121,0l0,0
			c-0.585-0.586-0.585-1.536,0-2.121l2.121-2.122C567.236-98.15,568.186-98.15,568.772-97.565L568.772-97.565z"/>
		<path fill="#FFE780" d="M570.154-107.659c-0.376,0.074-0.736,0.256-1.028,0.548c-0.662,0.662-0.757,1.67-0.298,2.438l-3.945,8.877
			l2.121,2.121l8.491-4.495C577-99,576.427-98.427,577-99c0.269-0.269,1.05-0.223,1.133-0.567l0.893-0.473l-8.485-8.485
			L570.154-107.659z"/>
		<path fill="#25B5F4" d="M590.635-128.62l-20.095,20.095c-0.781,0.781-0.781,2.048,0,2.829c0.781,0.78,2.047,0.78,2.828,0
			l19.911-19.912C592.459-126.666,591.579-127.675,590.635-128.62z"/>
		<path fill="#0095E0" d="M593.279-125.608l-19.911,19.912c-0.781,0.78-0.781,2.047,0,2.828c0.781,0.781,2.048,0.781,2.829,0
			l19.372-19.374C594.877-123.414,594.111-124.537,593.279-125.608z"/>
		<path fill="#004D7C" d="M595.569-122.242l-19.372,19.374c-0.781,0.781-0.781,2.047,0,2.828c0.78,0.781,2.047,0.781,2.828,0
			l18.446-18.446C596.921-119.785,596.28-121.037,595.569-122.242z"/>
	</g>
</g>
<g>
	<circle fill="#ED8B2B" cx="590" cy="-155" r="32"/>
	<g>
		<rect x="568" y="-147" fill="#C9C9C9" width="44" height="7"/>
		<g>
			<path fill="#755C46" d="M608.986-141h-37.973c-1.664,0-3.014-1.673-3.014-3.338v4.219c0,0.46,1.35,2.119,3.014,2.119h37.973
				c1.664,0,3.014-1.659,3.014-2.119v-4.219C612-142.673,610.65-141,608.986-141z"/>
		</g>
		<g>
			<path fill="#EFEFEF" d="M612-145.778c0,1.664-1.35,2.778-3.014,2.778h-37.973c-1.664,0-3.014-1.114-3.014-2.778l2.41-13.234
				c0-1.664,1.35-2.987,3.014-2.987h33.152c1.664,0,3.014,1.323,3.014,2.987L612-145.778z"/>
			<path fill="#EFEFEF" d="M612-145.778c0,1.664-1.35,2.778-3.014,2.778h-37.973c-1.664,0-3.014-1.114-3.014-2.778l2.41-13.234
				c0-1.664,1.35-2.987,3.014-2.987h33.152c1.664,0,3.014,1.323,3.014,2.987L612-145.778z"/>
		</g>
		<rect x="570" y="-164" fill="#BCBCBC" width="40" height="7"/>
		<polygon fill="#E5E5E5" points="606.576,-168 573.424,-168 569.809,-164 610.191,-164 		"/>
		<rect x="581" y="-166" fill="#777777" width="18" height="1"/>
		<rect x="581" y="-167" fill="#494949" width="18" height="1"/>
		<g>
			<ellipse fill="#AAAAAA" cx="578.849" cy="-152.776" rx="1.808" ry="1.206"/>
			<ellipse fill="#AAAAAA" cx="584.876" cy="-152.776" rx="1.808" ry="1.206"/>
			<ellipse fill="#AAAAAA" cx="590.301" cy="-152.776" rx="1.808" ry="1.206"/>
			<ellipse fill="#AAAAAA" cx="595.123" cy="-152.776" rx="1.808" ry="1.206"/>
			<ellipse fill="#AAAAAA" cx="601.151" cy="-152.776" rx="1.808" ry="1.206"/>
			<ellipse fill="#AAAAAA" cx="572.822" cy="-148.557" rx="1.809" ry="1.205"/>
			<ellipse fill="#AAAAAA" cx="578.849" cy="-148.557" rx="1.808" ry="1.205"/>
			<ellipse fill="#AAAAAA" cx="584.274" cy="-148.557" rx="1.808" ry="1.205"/>
			<ellipse fill="#AAAAAA" cx="590" cy="-148.557" rx="1.809" ry="1.205"/>
			<ellipse fill="#AAAAAA" cx="595.726" cy="-148.557" rx="1.808" ry="1.205"/>
			<ellipse fill="#AAAAAA" cx="601.151" cy="-148.557" rx="1.808" ry="1.205"/>
			<ellipse fill="#AAAAAA" cx="607.178" cy="-148.557" rx="1.808" ry="1.205"/>
			<ellipse fill="#AAAAAA" cx="572.822" cy="-144.94" rx="1.809" ry="1.206"/>
			<ellipse fill="#AAAAAA" cx="578.849" cy="-144.94" rx="1.808" ry="1.206"/>
			<ellipse fill="#AAAAAA" cx="584.274" cy="-144.94" rx="1.808" ry="1.206"/>
			<ellipse fill="#AAAAAA" cx="590" cy="-144.94" rx="1.809" ry="1.206"/>
			<ellipse fill="#AAAAAA" cx="595.726" cy="-144.94" rx="1.808" ry="1.206"/>
			<ellipse fill="#AAAAAA" cx="601.151" cy="-144.94" rx="1.808" ry="1.206"/>
			<ellipse fill="#AAAAAA" cx="607.178" cy="-144.94" rx="1.808" ry="1.206"/>
		</g>
		<g>
			<ellipse fill="#FFFFFF" cx="578.849" cy="-153.379" rx="1.808" ry="1.205"/>
			<ellipse fill="#FFFFFF" cx="584.876" cy="-153.379" rx="1.808" ry="1.205"/>
			<ellipse fill="#FFFFFF" cx="590.301" cy="-153.379" rx="1.808" ry="1.205"/>
			<ellipse fill="#FFFFFF" cx="595.123" cy="-153.379" rx="1.808" ry="1.205"/>
			<ellipse fill="#FFFFFF" cx="601.151" cy="-153.379" rx="1.808" ry="1.205"/>
			<ellipse fill="#FFFFFF" cx="572.822" cy="-149.16" rx="1.809" ry="1.206"/>
			<ellipse fill="#FFFFFF" cx="578.849" cy="-149.16" rx="1.808" ry="1.206"/>
			<ellipse fill="#FFFFFF" cx="584.274" cy="-149.16" rx="1.808" ry="1.206"/>
			<ellipse fill="#FFFFFF" cx="590" cy="-149.16" rx="1.809" ry="1.206"/>
			<ellipse fill="#FFFFFF" cx="595.726" cy="-149.16" rx="1.808" ry="1.206"/>
			<ellipse fill="#FFFFFF" cx="601.151" cy="-149.16" rx="1.808" ry="1.206"/>
			<ellipse fill="#FFFFFF" cx="607.178" cy="-149.16" rx="1.808" ry="1.206"/>
			<ellipse fill="#FFFFFF" cx="572.822" cy="-145.543" rx="1.809" ry="1.205"/>
			<ellipse fill="#FFFFFF" cx="578.849" cy="-145.543" rx="1.808" ry="1.205"/>
			<ellipse fill="#FFFFFF" cx="584.274" cy="-145.543" rx="1.808" ry="1.205"/>
			<ellipse fill="#FFFFFF" cx="590" cy="-145.543" rx="1.809" ry="1.205"/>
			<ellipse fill="#FFFFFF" cx="595.726" cy="-145.543" rx="1.808" ry="1.205"/>
			<ellipse fill="#FFFFFF" cx="601.151" cy="-145.543" rx="1.808" ry="1.205"/>
			<ellipse fill="#FFFFFF" cx="607.178" cy="-145.543" rx="1.808" ry="1.205"/>
		</g>
		<rect x="582" y="-172" fill="#FFFFFF" width="16" height="6"/>
		<rect x="582" y="-172" fill="#E5E5E5" width="16" height="2"/>
		<rect x="603" y="-161" fill="#7C7C7C" width="5" height="1"/>
	</g>
</g>
<g>
	<circle fill="#BA70AA" cx="522" cy="-183" r="32"/>
	<g opacity="0.7">
		<defs>
			<circle id="SVGID_1_" opacity="0.7" cx="522" cy="-183" r="32"/>
		</defs>
		<clipPath id="SVGID_2_">
			<use xlink:href="#SVGID_1_"  overflow="visible"/>
		</clipPath>
		<path clip-path="url(#SVGID_2_)" fill="#EDEDED" d="M570-165.946c0,2.732-2.239,4.946-5,4.946h-51c-2.761,0-5-2.215-5-4.946
			v-27.107c0-2.732,2.239-4.946,5-4.946h51c2.761,0,5,2.215,5,4.946V-165.946z"/>
		<rect x="509" y="-192" clip-path="url(#SVGID_2_)" fill="#B2B2B2" width="61" height="10"/>
		<rect x="515" y="-179" clip-path="url(#SVGID_2_)" fill="#FFFFFF" width="49" height="8"/>
	</g>
	<g>
		<defs>
			<circle id="SVGID_3_" cx="522" cy="-183" r="32"/>
		</defs>
		<clipPath id="SVGID_4_">
			<use xlink:href="#SVGID_3_"  overflow="visible"/>
		</clipPath>
		<path clip-path="url(#SVGID_4_)" fill="#EDEDED" d="M576-169.946c0,2.732-2.239,4.946-5,4.946h-51c-2.761,0-5-2.215-5-4.946
			v-27.107c0-2.732,2.239-4.946,5-4.946h51c2.761,0,5,2.215,5,4.946V-169.946z"/>
		<rect x="515" y="-196" clip-path="url(#SVGID_4_)" fill="#B2B2B2" width="61" height="10"/>
		<rect x="521" y="-183" clip-path="url(#SVGID_4_)" fill="#FFFFFF" width="49" height="8"/>
	</g>
</g>
<g>
	<circle fill="#FCBE22" cx="106.836" cy="30.527" r="32"/>
	<polygon fill="#ED1C24" points="104,29 109,29 109,36 113.667,41.083 111.333,51 103,51 99.333,46.167 102,38.667 104.833,34.167 	
		"/>
	<path fill="#FFFFFF" d="M110.376,22.549c0,3.931,0.012,7.862-0.012,11.793c-0.004,0.628,0.133,0.998,0.748,1.318
		c6.082,3.163,7.402,10.483,2.843,15.595c-4.191,4.698-12.449,3.803-15.525-1.682c-2.952-5.265-1.236-11.109,4.13-13.914
		c0.624-0.326,0.731-0.715,0.73-1.33c-0.015-7.828-0.013-15.657-0.007-23.485c0.001-1.978,0.781-3.267,2.285-3.846
		c1.984-0.763,4.199,0.397,4.663,2.473c0.115,0.514,0.139,1.056,0.141,1.586C110.381,14.887,110.376,18.718,110.376,22.549z
		 M107.991,24.411c0-4.332,0.001-8.663-0.002-12.995c0-0.332,0.088-0.745-0.072-0.978c-0.269-0.394-0.699-0.924-1.071-0.931
		c-0.369-0.007-0.832,0.505-1.094,0.896c-0.175,0.261-0.085,0.71-0.085,1.075c-0.003,8.696-0.008,17.393,0.008,26.089
		c0.001,0.672-0.115,1.027-0.865,1.277c-2.781,0.929-4.424,3.787-3.94,6.633c0.487,2.864,3.106,5.069,5.987,5.041
		c2.882-0.028,5.391-2.15,5.916-5.003c0.519-2.821-1.117-5.716-3.895-6.655c-0.789-0.267-0.906-0.643-0.902-1.355
		C108.004,33.141,107.991,28.776,107.991,24.411z"/>
</g>
<g>
	<g>
		<path fill="#3F5A70" d="M347-28c13.043,0,24.256-7.808,29.239-19h-58.479C322.744-35.808,333.957-28,347-28z"/>
		<path fill="#3B6D96" d="M347-92c-17.674,0-32,14.326-32,32c0,4.631,0.991,9.026,2.761,13h58.479c1.77-3.974,2.761-8.369,2.761-13
			C379-77.674,364.674-92,347-92z"/>
	</g>
	<g>
		<g>
			<path fill="#FFFFFF" d="M335.226-36.198c1.627-0.655,3.284-0.321,4.928-0.287c4.907,0.102,9.804,0.087,14.558-1.344
				c1.502-0.452,3.005-0.993,4.391-1.717c2.922-1.527,3.48-2.886,2.744-5.987c2.878,1.614,3.173,4.39,0.672,6.806
				c-1.597,1.543-3.608,2.366-5.723,2.873C349.591-34.125,342.396-33.967,335.226-36.198z"/>
			<path fill="#FFFFFF" d="M332.903-45.751c-0.767,2.597-0.504,3.524,2.007,4.37c6.771,2.283,13.61,2.343,20.369-0.092
				c1.444-0.52,3.062-1.29,2.061-3.44c1.863,0.289,2.401,1.277,1.419,2.693c-0.68,0.981-1.676,1.623-2.765,2.037
				c-7.664,2.916-15.372,2.826-23.062,0.142c-1.389-0.485-2.951-1.215-2.913-2.996C330.053-44.71,331.622-45.174,332.903-45.751z"/>
			<path fill="#FFFFFF" d="M344.74-41.133c-2.101,0.21-4.115-0.248-6.082-0.89c-1.087-0.354-2.35-0.746-2.242-2.241
				c0.095-1.3,1.246-1.635,2.275-1.965c0.453-0.146,0.945-0.17,1.62-0.283c-0.127,1.127-1.887,1.369-1.26,2.48
				c0.919,1.627,2.714,1.689,4.296,2.082C343.642-41.386,344.864-42.408,344.74-41.133z"/>
		</g>
		<g>
			<path fill="#FFFFFF" d="M356.994-55.83c-2.194,4.741-5.905,7.027-11.097,6.437c-5.7-0.648-8.625-4.227-9.492-9.71
				c0.82-3.54,2.291-6.658,4.762-9.461c3.228-3.661,4.475-8.364,6.048-13.239c1.562,6.875,5.261,12.542,9.321,18.049
				C358.316-61.341,357.403-58.51,356.994-55.83z"/>
			<path fill="#1C75BC" d="M352.547-62.658c2.545,2.143,2.471,3.945,0.991,5.816c-0.44,0.556-1.47,0.908-1.732,0.336
				C350.918-58.45,351.629-60.324,352.547-62.658z"/>
		</g>
	</g>
</g>
<g>
	<circle fill="#414042" cx="399.887" cy="34.437" r="32"/>
	<path fill="#FFFFFF" d="M414.612,35.794l-13.757-16.114c0,0,0,0-0.001,0l-0.967-1.135l-0.967,1.135c-0.001,0-0.001,0-0.001,0
		l-13.758,16.114c-0.533,0.624-0.265,1.07,0.593,0.989l1.983-0.003l3.812,13.55h16.674l3.81-13.548l1.984,0.093
		C414.879,36.954,415.145,36.418,414.612,35.794z M402.194,44.684c0,1.274-1.033,2.307-2.307,2.307
		c-1.274,0-2.307-1.033-2.307-2.307s1.033-2.307,2.307-2.307C401.161,42.377,402.194,43.41,402.194,44.684z M401,40h-3V28h3V40z"/>
	<g>
		<line fill="none" stroke="#FFFFFF" stroke-width="2" stroke-miterlimit="10" x1="391" y1="54" x2="407" y2="54"/>
		<line fill="none" stroke="#FFFFFF" stroke-width="2" stroke-miterlimit="10" x1="407" y1="52" x2="407" y2="57"/>
		<line fill="none" stroke="#FFFFFF" stroke-width="2" stroke-miterlimit="10" x1="392" y1="52" x2="392" y2="57"/>
	</g>
	<g>
		<line fill="none" stroke="#FFFFFF" stroke-miterlimit="10" x1="404.99" y1="13.49" x2="420.411" y2="28.911"/>
		<line fill="none" stroke="#FFFFFF" stroke-miterlimit="10" x1="422.267" y1="26.983" x2="417.447" y2="31.803"/>
		<line fill="none" stroke="#FFFFFF" stroke-miterlimit="10" x1="406.845" y1="11.49" x2="402.026" y2="16.309"/>
	</g>
</g>
<g>
	<g>
		<path fill="#00AF57" d="M144.263-281.918c-8.73,0-16.326,5.065-20.188,12.251c4.549-6.174,11.844-10.333,20.076-10.333
			c8.731,0,16.409,4.681,20.874,11.479C161.381-276.308,153.45-281.918,144.263-281.918z"/>
		<path fill="#00AF57" d="M146-316c-17.674,0-32,14.327-32,32c0,7.025,2.269,13.518,6.107,18.795
			C122.916-275.73,132.656-284,144.263-284c12.62,0,23.273,10.173,24.969,21.997c0,0,0.586-0.602,0,0c-0.155,0.155,0.158-0.155,0,0
			C175.193-267.815,178-275.017,178-284C178-301.673,163.674-316,146-316z"/>
	</g>
	<path fill="#FFFFFF" d="M146-252c8.659,0,16.509-3.444,22.269-9.031c-0.473,0.449,0.449,0.063,0,0
		c0.258-0.291,0.611-0.604,0.962-0.972c-1.695-11.824-12.501-22.295-25.12-22.295c-11.628,0-21.386,8.3-24.174,18.855
		C125.739-257.31,135.246-252,146-252z M144.111-282.216c9.188,0,17.118,5.61,20.763,13.397c-4.465-6.799-12.142-11.48-20.874-11.48
		c-8.232,0-15.527,4.159-20.076,10.333C127.785-277.15,135.381-282.216,144.111-282.216z"/>
	<ellipse fill="#FFFFFF" cx="144.02" cy="-289.499" rx="10.98" ry="15.499"/>
	<path fill="#D6D6D6" d="M151.356-301H151c2,4,1,31-14,22c-0.146,0.34-0.262,0.658-0.376,0.976c1.952,2.493,4.534,4.024,7.376,4.024
		c6.074,0,11-6.94,11-15.499C155-294.068,153.588-298.163,151.356-301z"/>
</g>
<g id="Space">
	<circle fill="#BE1E2D" cx="181" cy="-62.643" r="32"/>
	<g display="none">
		<g display="inline">
			<rect x="159" y="-77" fill="#E5E5E5" width="22" height="5"/>
			<path fill="#DD8747" d="M181-72h-20.125c-0.953,0-1.875-0.922-1.875-1.875V-75.6c0-0.953,0.922-1.4,1.875-1.4H181v-1h-20.125
				c-1.588,0-2.875,0.812-2.875,2.4v1.725c0,1.588,1.287,2.875,2.875,2.875H181V-72z"/>
			<polygon fill="#AAAAAA" points="181,-76.75 159,-74.45 159,-77 181,-77 			"/>
		</g>
		<g display="inline">
			<rect x="161" y="-84" fill="#E0E0E0" width="19" height="4"/>
			<polygon fill="#AAAAAA" points="180,-83.65 161,-81.35 161,-84 180,-84 			"/>
			<path fill="#727272" d="M180-80h-18.55c-0.318,0-0.45,0.118-0.45-0.2v-3.45c0-0.318,0.132-0.35,0.45-0.35H180v-1h-17.975
				c-1.27,0-2.025,0.655-2.025,1.925v2.3c0,1.27,0.755,2.775,2.025,2.775H180V-80z"/>
		</g>
		<g display="inline">
			<path fill="#7EC7FC" d="M171-89.975V-91h-7v3.9c0,0.953,0.522,2.1,1.475,2.1h3.45c0.953,0,1.725-0.96,1.725-1.912
				c1.27,0,2.475-0.738,2.475-1.531S172-89.975,171-89.975z M170.65-87.675V-89.4c0.988,0,1.789,0.245,1.789,0.863
				C172.439-87.92,171.638-87.675,170.65-87.675z"/>
			<path fill="#6ABFEA" d="M165.475-85h3.45c0.953,0,1.725-1,1.725-2h-6.9C163.75-86,164.522-85,165.475-85z"/>
		</g>
	</g>
	<g display="none">
		<g display="inline">
			<path fill="#FFFFFF" d="M193-52.902c0,1.076-0.349,1.902-1.488,1.902h-7.61c-1.138,0-1.902-0.826-1.902-1.902v-15.695
				c0-1.076,0.764-1.402,1.902-1.402h7.61c1.138,0,1.488,0.326,1.488,1.402V-52.902z"/>
		</g>
		<g display="inline">
			<circle fill="#FFFFFF" cx="187.47" cy="-53.14" r="1.088"/>
			<path fill="#E5E5E5" d="M187.47-53.854c0.394,0,0.713,0.32,0.713,0.713c0,0.394-0.32,0.713-0.713,0.713
				c-0.394,0-0.713-0.32-0.713-0.713C186.756-53.534,187.076-53.854,187.47-53.854 M187.47-54.604c-0.807,0-1.463,0.656-1.463,1.463
				c0,0.807,0.656,1.463,1.463,1.463s1.463-0.656,1.463-1.463C188.933-53.947,188.276-54.604,187.47-54.604L187.47-54.604z"/>
		</g>
		<g display="inline">
			<path fill="#B7B7B7" d="M192-67v12h-9v-12H192 M193-68h-1.012h-8.561H182v1.305v11.415V-54h1.427h8.561H193v-1.28v-11.415V-68
				L193-68z"/>
		</g>
		<g display="inline">
			<rect x="186" y="-69" fill="#BCBCBC" width="3" height="1"/>
		</g>
		<rect x="187.707" y="-69.549" display="inline" fill="#BCBCBC" width="0.476" height="0.476"/>
	</g>
	
		<line id="line_2_" fill="none" stroke="#FFFFFF" stroke-width="2" stroke-miterlimit="10" x1="145.619" y1="-61.016" x2="216.381" y2="-60.874"/>
	<g>
		<path fill="#BE1E2D" stroke="#FFFFFF" stroke-miterlimit="10" d="M168.594-41.523c8.331,0,16.541,0,24.812,0
			c0-5.341,0-10.53,0-15.746c-8.297,0-16.506,0-24.812,0C168.594-51.991,168.594-46.783,168.594-41.523"/>
		<path fill="#FFFFFF" stroke="#FFFFFF" stroke-miterlimit="10" d="M183.424-40.808c-1.662,0-3.177,0-4.839,0
			c0,1.499,0,2.908,0,4.425c-0.965,0-1.783,0-2.617,0c0,0.451,0,0.781,0,1.149c3.39,0,6.706,0,10.042,0c0-0.419,0-0.778,0-1.229
			c-0.878,0-1.66,0-2.585,0C183.424-37.958,183.424-39.366,183.424-40.808z"/>
		<path fill="#BE1E2D" stroke="#FFFFFF" stroke-miterlimit="10" d="M168.594-41.523c0-5.26,0-10.468,0-15.746
			c8.305,0,16.515,0,24.812,0c0,5.216,0,10.406,0,15.746C185.135-41.523,176.925-41.523,168.594-41.523"/>
	</g>
	<g>
		<path fill="#FFFFFF" d="M170.232-73.453c-0.469,0.527-0.944,1.05-1.407,1.583c-0.657,0.757-1.192,0.464-1.777-0.129
			c-0.549-0.557-0.83-1.034-0.14-1.697c1.18-1.134,2.328-2.301,3.468-3.474c0.304-0.313,0.634-0.399,1.047-0.395
			c1.565,0.014,3.131,0.025,4.696-0.004c0.475-0.009,0.798,0.16,1.115,0.485c1.094,1.12,2.188,2.24,3.321,3.319
			c0.708,0.674,0.51,1.185-0.094,1.789c-0.605,0.606-1.137,0.825-1.781,0.085c-0.529-0.608-1.089-1.188-1.635-1.781
			c-0.085,0.046-0.17,0.092-0.255,0.138c0,1.583,0,3.166,0,4.749c0,1.743-0.023,3.487,0.009,5.23
			c0.016,0.878-0.265,1.299-1.222,1.309c-0.999,0.01-1.317-0.407-1.289-1.348c0.044-1.488,0.012-2.978,0.012-4.431
			c-0.417-0.328-0.794-0.112-1.27-0.211c0,1.595,0.006,3.08-0.002,4.564c-0.007,1.208-0.213,1.373-1.327,1.414
			c-1.066,0.039-1.217-0.551-1.21-1.421c0.024-3.195,0.009-6.391,0.009-9.586C170.41-73.329,170.321-73.391,170.232-73.453z"/>
		<path fill="#FFFFFF" d="M173.742-85.456c1.829,0.017,3.333,1.55,3.298,3.36c-0.036,1.832-1.571,3.311-3.391,3.265
			c-1.801-0.045-3.221-1.498-3.228-3.305C170.415-83.974,171.913-85.473,173.742-85.456z"/>
	</g>
	<g>
		<path fill="#FFFFFF" d="M188.736-67.186c-0.406-0.186-0.73-0.19-1.138-0.001c0,1.206-0.027,2.439,0.009,3.67
			c0.027,0.923-0.443,1.125-1.233,1.128c-0.807,0.003-1.245-0.243-1.219-1.148c0.034-1.201,0.008-2.404,0.008-3.631
			c-0.538-0.343-1.167-0.008-1.781-0.264c0.309-1.609,0.618-3.218,0.975-5.079c-1.063,0.736-1.698,1.52-2.374,2.243
			c-0.667,0.714-1.165,0.63-1.817-0.036c-0.66-0.674-0.702-1.174-0.011-1.852c1.549-1.518,3.059-3.08,4.557-4.651
			c0.441-0.463,0.894-0.765,1.542-0.652c2.71,0.474,4.92-0.399,6.676-2.547c0.263-0.322,0.638-0.545,0.932-0.844
			c1.146-1.168,1.491-0.667,2.331,0.473c0.362,0.49,0.043,0.912-0.366,1.268c-1.291,1.125-2.556,2.281-3.855,3.397
			c-0.389,0.334-0.51,0.64-0.4,1.176c0.479,2.346,0.897,4.706,1.338,7.064c-0.545,0.32-1.132-0.012-1.728,0.278
			c0,1.161-0.026,2.355,0.009,3.547c0.026,0.902-0.322,1.264-1.227,1.26c-0.88-0.004-1.275-0.298-1.238-1.235
			C188.771-64.815,188.736-66.013,188.736-67.186z"/>
		<path fill="#FFFFFF" d="M191.351-83.172c0.106,2.718-1.063,4.291-3.162,4.301c-2.137,0.01-3.291-1.573-3.166-4.391
			c-1.25,0.354-2.454,1.277-3.82,0.376c1.233-1.992,2.889-2.421,4.192-1.125c2.015-1.862,3.505-1.919,5.338-0.203
			c1.571-0.978,2.743-0.635,4.209,1.297C193.67-82.064,192.517-82.761,191.351-83.172z"/>
	</g>
</g>
<g id="energie">
	<g>
		<defs>
			<circle id="WInd_2_" cx="329.69" cy="33.174" r="32"/>
		</defs>
		<clipPath id="WInd_3_">
			<use xlink:href="#WInd_2_"  overflow="visible"/>
		</clipPath>
		<g id="windIcon" clip-path="url(#WInd_3_)">
			<circle id="WInd_1_" fill="#00AEEF" cx="329.69" cy="33.174" r="32"/>
		</g>
	</g>
	<g id="windmill">
		<path fill="#D1D3D4" d="M330.156,35.237c-0.247,0-0.482-0.035-0.697-0.144L327.907,60h4.305l-0.98-23.966
			c-0.086-0.376-0.161-0.739-0.226-1.052C330.751,35.147,330.465,35.237,330.156,35.237z"/>
		<path fill="#FFFFFF" d="M353.92,45.903l-21.963-11.941c0.14-0.286,0.223-0.602,0.223-0.938c0-0.799-0.444-1.495-1.108-1.892
			c1.788-1.649,5.101-4.969,4.924-6.792c-1.581-4.941-4.686-14.644-5.701-17.816c-0.209-0.654-0.764,0.273-0.764,0.273l0.072,24.006
			c-1.174,0.101-2.096,1.007-2.141,2.136c-2.4-0.643-7.092-1.704-8.669-0.647c-3.724,3.769-11.036,11.169-13.426,13.588
			c-0.493,0.499,0.632,0.49,0.632,0.49l21.89-12.058c0.257,0.344,0.61,0.617,1.026,0.781c0.278,0.109,0.582,0.171,0.902,0.171
			c0.399,0,0.769-0.103,1.099-0.268c0.083,0.312,0.181,0.661,0.292,1.037c0.703,2.381,1.937,5.743,3.453,6.405
			c5.305,1.173,15.722,3.475,19.127,4.228C354.49,46.822,353.92,45.903,353.92,45.903z"/>
	</g>
</g>
<g id="engagement_1_">
	<ellipse id="cicle" fill="#00A14B" cx="33.253" cy="-66.814" rx="32" ry="32.125"/>
	
		<line id="line_1_" fill="none" stroke="#FFFFFF" stroke-width="2" stroke-miterlimit="10" x1="6.944" y1="-92.472" x2="58.562" y2="-40.654"/>
	<g id="_x31__4_">
		<path fill="#FFFFFF" d="M44.969-87.586c5.945,0.007,10.696,3.318,10.691,7.527c-0.005,4.208-5.047,8.026-10.992,8.019
			c-5.944-0.007-10.367-3.835-10.362-8.044c0.001-0.661,0.023-1.191,0.246-1.801l-1.346-3.095c-0.105-0.241,0.034-0.41,0.309-0.374
			l3.287,0.422C38.776-86.557,41.7-87.589,44.969-87.586z"/>
		<path fill="#E6E7E8" d="M58.135-69.817l-1.353-3.091c0.222-0.611,0.352-1.248,0.351-1.907c-0.001-0.828-0.515-1.711-0.86-2.457
			c-0.781,3.956-5.06,6.891-10.973,6.897c-3.551,0.004-7.013-0.89-9.161-2.623l-0.21,0.026c1.159,3.328,5.538,5.47,10.595,5.464
			c3.268-0.004,6.045-0.717,8.017-2.348l3.287,0.415C58.102-69.406,58.24-69.576,58.135-69.817z"/>
	</g>
	<g id="_x31__3_">
		<path fill="#FFFFFF" d="M22.585-44.59c-5.945-0.007-10.696-3.318-10.691-7.527c0.005-4.208,5.047-8.026,10.992-8.019
			c5.944,0.007,10.367,3.835,10.362,8.044c-0.001,0.661-0.023,1.191-0.246,1.801l1.346,3.095c0.105,0.241-0.034,0.41-0.309,0.374
			l-3.287-0.421C28.778-45.619,25.854-44.587,22.585-44.59z"/>
		<path fill="#E6E7E8" d="M9.419-62.359l1.353,3.091c-0.222,0.611-0.352,1.248-0.351,1.907c0.001,0.828,0.515,1.711,0.86,2.457
			c0.781-3.956,5.059-6.891,10.973-6.897c3.551-0.004,7.013,0.89,9.161,2.623l0.21-0.026c-1.159-3.328-5.538-5.47-10.595-5.464
			c-3.268,0.004-6.045,0.717-8.017,2.348l-3.287-0.415C9.452-62.769,9.314-62.6,9.419-62.359z"/>
	</g>
	<ellipse display="none" fill="none" cx="32.753" cy="-67.065" rx="32" ry="32.125"/>
</g>
</svg>
