<?xml version="1.0" encoding="utf-8"?>
<!-- Generator: Adobe Illustrator 18.0.0, SVG Export Plug-In . SVG Version: 6.00 Build 0)  -->
<!DOCTYPE svg PUBLIC "-//W3C//DTD SVG 1.1//EN" "http://www.w3.org/Graphics/SVG/1.1/DTD/svg11.dtd">
<svg version="1.1" id="Layer_1" xmlns="http://www.w3.org/2000/svg" xmlns:xlink="http://www.w3.org/1999/xlink" x="0px" y="0px"
	 viewBox="0 0 64 64" enable-background="new 0 0 64 64" xml:space="preserve">
<g>
	<circle fill="#262262" cx="32" cy="32" r="32"/>
	<g>
		<path fill="#6CD313" d="M24.6,33c-1.3,0-2.6-1-2.6-2.2v-7.6c0-1.2,1.3-2.2,2.6-2.2h23.9c1.3,0,2.4,1,2.4,2.2v7.6
			c0,1.2-1.1,2.2-2.4,2.2H24.6z"/>
		<path fill="#DBDBDB" d="M48.6,22c1.1,0,1.4,0.3,1.4,1.2v7.6c0,0.9-0.4,2.2-1.4,2.2H24.6c-1.1,0-1.6-1.3-1.6-2.2v-7.6
			c0-0.9,0.6-1.2,1.6-1.2H49 M48.6,21H24.6C23,21,22,21.7,22,23.2v7.6c0,1.5,1,3.2,2.6,3.2h23.9c1.6,0,2.4-1.7,2.4-3.2v-7.6
			C51,21.7,50.2,21,48.6,21L48.6,21z"/>
	</g>
	<path fill="#FFFFFF" d="M18,60.8c0.7,0.3,1.3,0.6,2,0.9V2.3c-0.7,0.3-1.3,0.6-2,0.9V60.8z"/>
	<path fill="#CCCCCC" d="M20,61.7c0.7,0.3,1.3,0.5,2,0.7V1.6c-0.7,0.2-1.3,0.5-2,0.7V61.7z"/>
	<text transform="matrix(1 0 0 1 23.6245 30.4199)" fill="#FFFFFF" font-family="'ArialMT'" font-size="8.8161">Matera</text>
</g>
</svg>
