<?xml version="1.0" encoding="utf-8"?>
<!-- Generator: Adobe Illustrator 17.0.0, SVG Export Plug-In . SVG Version: 6.00 Build 0)  -->
<!DOCTYPE svg PUBLIC "-//W3C//DTD SVG 1.0//EN" "http://www.w3.org/TR/2001/REC-SVG-20010904/DTD/svg10.dtd">
<svg version="1.0" id="Layer_1" xmlns="http://www.w3.org/2000/svg" xmlns:xlink="http://www.w3.org/1999/xlink" x="0px" y="0px"
	 width="64px" height="64px" viewBox="0 0 64 64" enable-background="new 0 0 64 64" xml:space="preserve">
<g>
	<rect x="-337.5" y="-9.5" fill="#FFFFFF" stroke="#FFFFFF" stroke-miterlimit="10" width="459" height="239"/>
</g>
<g>
	<g>
		<path fill="#3F5A70" d="M32,64c13.043,0,24.256-7.808,29.239-19H2.761C7.744,56.192,18.957,64,32,64z"/>
		<path fill="#3B6D96" d="M32,0C14.326,0,0,14.326,0,32c0,4.631,0.991,9.026,2.761,13h58.479C63.009,41.026,64,36.631,64,32
			C64,14.326,49.674,0,32,0z"/>
	</g>
	<g>
		<g>
			<path fill="#FFFFFF" d="M20.226,55.802c1.627-0.655,3.284-0.321,4.928-0.287c4.907,0.102,9.804,0.087,14.558-1.344
				c1.502-0.452,3.005-0.993,4.391-1.717c2.922-1.527,3.48-2.886,2.744-5.987c2.878,1.614,3.173,4.39,0.672,6.806
				c-1.597,1.543-3.608,2.366-5.723,2.873C34.591,57.875,27.396,58.033,20.226,55.802z"/>
			<path fill="#FFFFFF" d="M17.903,46.249c-0.767,2.597-0.504,3.524,2.007,4.37c6.771,2.283,13.61,2.343,20.369-0.092
				c1.444-0.52,3.062-1.29,2.061-3.44c1.863,0.289,2.401,1.277,1.419,2.693c-0.68,0.981-1.676,1.623-2.765,2.037
				c-7.664,2.916-15.372,2.826-23.062,0.142c-1.389-0.485-2.951-1.215-2.913-2.996C15.053,47.29,16.622,46.826,17.903,46.249z"/>
			<path fill="#FFFFFF" d="M29.74,50.867c-2.101,0.21-4.115-0.248-6.082-0.89c-1.087-0.354-2.35-0.746-2.242-2.241
				c0.095-1.3,1.246-1.635,2.275-1.965c0.453-0.146,0.945-0.17,1.62-0.283c-0.127,1.127-1.887,1.369-1.26,2.48
				c0.919,1.627,2.714,1.689,4.296,2.082C28.642,50.614,29.864,49.592,29.74,50.867z"/>
		</g>
		<g>
			<path fill="#FFFFFF" d="M41.994,36.17c-2.194,4.741-5.905,7.027-11.097,6.437c-5.7-0.648-8.625-4.227-9.492-9.71
				c0.82-3.54,2.291-6.658,4.762-9.461c3.228-3.661,4.475-8.364,6.048-13.239c1.562,6.875,5.261,12.542,9.321,18.049
				C43.316,30.659,42.403,33.49,41.994,36.17z"/>
			<path fill="#1C75BC" d="M37.547,29.342c2.545,2.143,2.471,3.945,0.991,5.816c-0.44,0.556-1.471,0.908-1.732,0.336
				C35.918,33.55,36.629,31.676,37.547,29.342z"/>
		</g>
	</g>
</g>
</svg>
