<?xml version="1.0" encoding="utf-8"?>
<!-- Generator: Adobe Illustrator 17.0.0, SVG Export Plug-In . SVG Version: 6.00 Build 0)  -->
<!DOCTYPE svg PUBLIC "-//W3C//DTD SVG 1.1//EN" "http://www.w3.org/Graphics/SVG/1.1/DTD/svg11.dtd">
<svg version="1.1" id="Layer_1" xmlns="http://www.w3.org/2000/svg" xmlns:xlink="http://www.w3.org/1999/xlink" x="0px" y="0px"
	 width="70.766px" height="64px" viewBox="0 0 70.766 64" enable-background="new 0 0 70.766 64" xml:space="preserve">
<g>
	<rect x="-93.117" y="-5.215" fill="#FFFFFF" stroke="#FFFFFF" stroke-miterlimit="10" width="459" height="239"/>
</g>
<g>
	<circle fill="#2B3990" cx="35.383" cy="32" r="32"/>
	<path fill="#FFFBE6" d="M46.672,16.158L36.125,3.804c0,0,0,0-0.001,0l-0.741-0.87l-0.742,0.87c-0.001,0-0.001,0-0.001,0
		L24.093,16.158c-0.409,0.479-0.203,0.82,0.455,0.758l1.521-0.002l2.923,10.388h12.783l2.921-10.387l1.521,0.072
		C46.876,17.048,47.081,16.637,46.672,16.158z"/>
	
		<line id="line" fill="none" stroke="#FFFFFF" stroke-width="2" stroke-miterlimit="10" x1="0.002" y1="31.929" x2="70.764" y2="32.071"/>
	<g id="Head">
		<g id="Head_backl">
			<path fill="#FFFFFF" stroke="#2B3990" stroke-width="0.5" stroke-miterlimit="10" d="M46.183,49.142
				c-0.717,0.019-1.647-0.876-2.597-2.427s-1.501-3.902-1.501-3.902c-0.4-2.151,0.7-3.502,0.7-3.502
				c1.251-1.801,3.302-1.901,3.302-1.901h0.192c0,0,2.051,0.1,3.302,1.901c0,0,1.101,1.351,0.7,3.502c0,0-0.55,2.351-1.501,3.902
				S46.9,49.123,46.183,49.142z"/>
			<path fill="#FFFFFF" stroke="#2B3990" stroke-width="0.5" stroke-miterlimit="10" d="M46.183,53.945h8.822
				c0.563-0.488-1.144-2.57-1.932-3.283c-0.788-0.713-2.946-1.97-3.921-2.251c0,0-1.407,1.538-1.764,1.538s-1.205,0-1.205,0
				s-0.848,0-1.205,0s-1.764-1.538-1.764-1.538c-0.976,0.281-3.133,1.538-3.921,2.251c-0.788,0.713-2.495,2.796-1.932,3.283H46.183z
				"/>
		</g>
		<g id="Head_back_1_">
			<path fill="#FFFFFF" stroke="#2B3990" stroke-width="0.5" stroke-miterlimit="10" d="M24.582,49.142
				c0.717,0.019,1.647-0.876,2.597-2.427c0.951-1.551,1.501-3.902,1.501-3.902c0.4-2.151-0.7-3.502-0.7-3.502
				c-1.251-1.801-3.302-1.901-3.302-1.901h-0.192c0,0-2.051,0.1-3.302,1.901c0,0-1.101,1.351-0.7,3.502c0,0,0.55,2.351,1.501,3.902
				S23.865,49.123,24.582,49.142z"/>
			<path fill="#FFFFFF" stroke="#2B3990" stroke-width="0.5" stroke-miterlimit="10" d="M24.582,53.945H15.76
				c-0.563-0.488,1.144-2.57,1.932-3.283s2.946-1.97,3.921-2.251c0,0,1.407,1.538,1.764,1.538s1.205,0,1.205,0s0.848,0,1.205,0
				c0.356,0,1.764-1.538,1.764-1.538c0.976,0.281,3.133,1.538,3.921,2.251s2.495,2.796,1.932,3.283H24.582z"/>
		</g>
		<path fill="#FFFFFF" stroke="#2B3990" stroke-miterlimit="10" d="M35.016,52.025c-0.852,0.022-1.956-1.04-3.084-2.882
			c-1.129-1.842-1.782-4.634-1.782-4.634c-0.475-2.555,0.832-4.159,0.832-4.159c1.485-2.139,3.921-2.258,3.921-2.258h0.228
			c0,0,2.436,0.119,3.921,2.258c0,0,1.307,1.604,0.832,4.159c0,0-0.654,2.792-1.782,4.634S35.867,52.003,35.016,52.025z"/>
		<path fill="#FFFFFF" stroke="#2B3990" stroke-miterlimit="10" d="M35.016,57.729h10.476c0.668-0.579-1.359-3.052-2.295-3.899
			c-0.936-0.847-3.498-2.339-4.656-2.674c0,0-1.671,1.827-2.094,1.827c-0.423,0-1.431,0-1.431,0s-1.008,0-1.431,0
			c-0.423,0-2.094-1.827-2.094-1.827c-1.159,0.334-3.721,1.827-4.656,2.674c-0.936,0.847-2.963,3.32-2.295,3.899H35.016z"/>
	</g>
</g>
</svg>
