<?xml version="1.0" encoding="utf-8"?>
<!-- Generator: Adobe Illustrator 17.0.0, SVG Export Plug-In . SVG Version: 6.00 Build 0)  -->
<!DOCTYPE svg PUBLIC "-//W3C//DTD SVG 1.0//EN" "http://www.w3.org/TR/2001/REC-SVG-20010904/DTD/svg10.dtd">
<svg version="1.0" id="Layer_1" xmlns="http://www.w3.org/2000/svg" xmlns:xlink="http://www.w3.org/1999/xlink" x="0px" y="0px"
	 width="64px" height="64px" viewBox="0 0 64 64" enable-background="new 0 0 64 64" xml:space="preserve">
<g>
	<rect x="-97.336" y="-100.027" fill="#FFFFFF" stroke="#FFFFFF" stroke-miterlimit="10" width="459" height="239"/>
</g>
<g>
	<circle fill="#FCBE22" cx="32" cy="32" r="32"/>
	<polygon fill="#ED1C24" points="29.164,30.473 34.164,30.473 34.164,37.473 38.831,42.556 36.498,52.473 28.164,52.473 
		24.498,47.639 27.164,40.139 29.998,35.639 	"/>
	<path fill="#FFFFFF" d="M35.541,24.021c0,3.931,0.012,7.862-0.012,11.793c-0.004,0.628,0.133,0.998,0.748,1.318
		c6.082,3.163,7.402,10.483,2.843,15.595c-4.191,4.698-12.449,3.803-15.525-1.682c-2.952-5.265-1.236-11.109,4.13-13.914
		c0.624-0.326,0.731-0.715,0.73-1.33c-0.015-7.828-0.013-15.657-0.007-23.485c0.001-1.978,0.781-3.267,2.285-3.846
		c1.984-0.763,4.199,0.397,4.663,2.473c0.115,0.514,0.139,1.056,0.141,1.586C35.546,16.359,35.54,20.19,35.541,24.021z
		 M33.155,25.884c0-4.332,0.001-8.663-0.002-12.995c0-0.332,0.088-0.745-0.072-0.978c-0.269-0.394-0.699-0.924-1.071-0.931
		c-0.369-0.007-0.832,0.505-1.094,0.896c-0.175,0.261-0.085,0.71-0.085,1.075c-0.003,8.696-0.008,17.393,0.008,26.089
		c0.001,0.672-0.115,1.027-0.865,1.277c-2.781,0.929-4.424,3.787-3.94,6.633c0.487,2.864,3.106,5.069,5.987,5.041
		c2.882-0.028,5.391-2.15,5.916-5.003c0.519-2.821-1.117-5.716-3.895-6.655c-0.789-0.267-0.906-0.643-0.902-1.355
		C33.168,34.614,33.155,30.249,33.155,25.884z"/>
</g>
</svg>
