<?xml version="1.0" encoding="utf-8"?>
<!-- Generator: Adobe Illustrator 17.0.0, SVG Export Plug-In . SVG Version: 6.00 Build 0)  -->
<!DOCTYPE svg PUBLIC "-//W3C//DTD SVG 1.1//EN" "http://www.w3.org/Graphics/SVG/1.1/DTD/svg11.dtd">
<svg version="1.1" id="Layer_1" xmlns="http://www.w3.org/2000/svg" xmlns:xlink="http://www.w3.org/1999/xlink" x="0px" y="0px"
	 width="63.608px" height="64px" viewBox="0 0 63.608 64" enable-background="new 0 0 63.608 64" xml:space="preserve">
<g>
	<rect x="-250.892" y="-8.5" fill="#FFFFFF" stroke="#FFFFFF" stroke-miterlimit="10" width="459" height="239"/>
</g>
<g>
	<path fill="#ED1C24" d="M31.608,0C15.636,0,2.4,11.702,0,27h6.608l3,5l4.334-5h3.332l3.334,3h4l1-3l4,5l2.5-5h4.5
		c0.553,0,1,0.448,1,1l5,6v3l-5,4c-1,1-0.447,1-1,1H1.211c4.2,12.774,16.217,22,30.398,22c17.674,0,32-14.326,32-32
		C63.608,14.327,49.282,0,31.608,0z"/>
	<path fill="#ED1C24" d="M36.608,37H0c0.159,1.017,0.363,2.018,0.616,3h34.992L36.608,37z"/>
</g>
</svg>
