<?xml version="1.0" encoding="utf-8"?>
<!-- Generator: Adobe Illustrator 17.0.0, SVG Export Plug-In . SVG Version: 6.00 Build 0)  -->
<!DOCTYPE svg PUBLIC "-//W3C//DTD SVG 1.1//EN" "http://www.w3.org/Graphics/SVG/1.1/DTD/svg11.dtd">
<svg version="1.1" id="Layer_1" xmlns="http://www.w3.org/2000/svg" xmlns:xlink="http://www.w3.org/1999/xlink" x="0px" y="0px"
	 width="64px" height="64.249px" viewBox="367.122 268.251 64 64.249" enable-background="new 367.122 268.251 64 64.249"
	 xml:space="preserve">
<g id="engagement">
	<ellipse id="cicle" fill="#00A14B" cx="399.122" cy="300.375" rx="32" ry="32.125"/>
	
		<line id="line" fill="none" stroke="#FFFFFF" stroke-width="2" stroke-miterlimit="10" x1="372.813" y1="274.717" x2="424.431" y2="326.536"/>
	<g id="_x31__2_">
		<path fill="#FFFFFF" d="M410.838,279.604c5.945,0.007,10.696,3.318,10.691,7.527c-0.005,4.208-5.047,8.026-10.992,8.019
			c-5.944-0.007-10.367-3.835-10.362-8.044c0.001-0.661,0.023-1.191,0.246-1.801l-1.346-3.095c-0.105-0.241,0.034-0.41,0.309-0.374
			l3.287,0.422C404.645,280.633,407.569,279.601,410.838,279.604z"/>
		<path fill="#E6E7E8" d="M424.004,297.373l-1.353-3.091c0.222-0.611,0.352-1.248,0.351-1.907c-0.001-0.828-0.515-1.711-0.86-2.457
			c-0.781,3.956-5.06,6.891-10.973,6.897c-3.551,0.004-7.013-0.89-9.161-2.623l-0.21,0.026c1.159,3.328,5.538,5.47,10.595,5.464
			c3.268-0.004,6.045-0.717,8.017-2.348l3.287,0.415C423.971,297.783,424.109,297.614,424.004,297.373z"/>
	</g>
	<g id="_x31__1_">
		<path fill="#FFFFFF" d="M388.454,322.6c-5.945-0.007-10.696-3.318-10.691-7.527c0.005-4.208,5.047-8.026,10.992-8.019
			c5.944,0.007,10.367,3.835,10.362,8.044c-0.001,0.661-0.023,1.191-0.246,1.801l1.346,3.095c0.105,0.241-0.034,0.41-0.309,0.374
			l-3.287-0.421C394.647,321.571,391.723,322.603,388.454,322.6z"/>
		<path fill="#E6E7E8" d="M375.288,304.831l1.353,3.091c-0.222,0.611-0.352,1.248-0.351,1.907c0.001,0.828,0.515,1.711,0.86,2.457
			c0.781-3.956,5.059-6.891,10.973-6.897c3.551-0.004,7.013,0.89,9.161,2.623l0.21-0.026c-1.159-3.328-5.538-5.47-10.595-5.464
			c-3.268,0.004-6.045,0.717-8.017,2.348l-3.287-0.415C375.321,304.42,375.183,304.59,375.288,304.831z"/>
	</g>
	<ellipse display="none" fill="none" cx="398.622" cy="300.125" rx="32" ry="32.125"/>
</g>
</svg>
