<?xml version="1.0" encoding="utf-8"?>
<!-- Generator: Adobe Illustrator 17.0.0, SVG Export Plug-In . SVG Version: 6.00 Build 0)  -->
<!DOCTYPE svg PUBLIC "-//W3C//DTD SVG 1.0//EN" "http://www.w3.org/TR/2001/REC-SVG-20010904/DTD/svg10.dtd">
<svg version="1.0" id="Layer_1" xmlns="http://www.w3.org/2000/svg" xmlns:xlink="http://www.w3.org/1999/xlink" x="0px" y="0px"
	 width="64px" height="64px" viewBox="0 0 64 64" enable-background="new 0 0 64 64" xml:space="preserve">
<g>
	<rect x="-390.387" y="-103.937" fill="#FFFFFF" stroke="#FFFFFF" stroke-miterlimit="10" width="459" height="239"/>
</g>
<g>
	<circle fill="#414042" cx="32" cy="32" r="32"/>
	<path fill="#FFFFFF" d="M46.725,33.356L32.969,17.242c0,0,0,0-0.001,0l-0.967-1.135l-0.967,1.135c-0.001,0-0.001,0-0.001,0
		L17.274,33.356c-0.533,0.624-0.265,1.07,0.593,0.989l1.983-0.003l3.812,13.55h16.674l3.81-13.548l1.984,0.093
		C46.992,34.517,47.258,33.981,46.725,33.356z M34.307,42.247c0,1.274-1.033,2.307-2.307,2.307s-2.307-1.033-2.307-2.307
		S30.726,39.94,32,39.94S34.307,40.973,34.307,42.247z M33.113,37.563h-3v-12h3V37.563z"/>
	<g>
		<line fill="none" stroke="#FFFFFF" stroke-width="2" stroke-miterlimit="10" x1="23.113" y1="51.563" x2="39.113" y2="51.563"/>
		<line fill="none" stroke="#FFFFFF" stroke-width="2" stroke-miterlimit="10" x1="39.113" y1="49.563" x2="39.113" y2="54.563"/>
		<line fill="none" stroke="#FFFFFF" stroke-width="2" stroke-miterlimit="10" x1="24.113" y1="49.563" x2="24.113" y2="54.563"/>
	</g>
	<g>
		<line fill="none" stroke="#FFFFFF" stroke-miterlimit="10" x1="37.103" y1="11.052" x2="52.524" y2="26.474"/>
		<line fill="none" stroke="#FFFFFF" stroke-miterlimit="10" x1="54.38" y1="24.546" x2="49.56" y2="29.365"/>
		<line fill="none" stroke="#FFFFFF" stroke-miterlimit="10" x1="38.958" y1="9.052" x2="34.139" y2="13.872"/>
	</g>
</g>
</svg>
